<svg width="4" height="12" viewBox="0 0 4 12" fill="none" xmlns="http://www.w3.org/2000/svg">
<path d="M1.64648 8.5C2.08919 8.5 2.43099 8.62695 2.67188 8.88086C2.91276 9.12826 3.0332 9.44076 3.0332 9.81836C3.0332 10.1895 2.91276 10.4987 2.67188 10.7461C2.43099 10.987 2.08919 11.1074 1.64648 11.1074C1.22331 11.1074 0.888021 10.987 0.640625 10.7461C0.393229 10.5052 0.269531 10.196 0.269531 9.81836C0.269531 9.44076 0.389974 9.12826 0.630859 8.88086C0.871745 8.62695 1.21029 8.5 1.64648 8.5ZM1.64648 0.208984C2.08919 0.208984 2.43099 0.335938 2.67188 0.589844C2.91276 0.83724 3.0332 1.14974 3.0332 1.52734C3.0332 1.89844 2.91276 2.20768 2.67188 2.45508C2.43099 2.69596 2.08919 2.81641 1.64648 2.81641C1.22331 2.81641 0.888021 2.69596 0.640625 2.45508C0.393229 2.21419 0.269531 1.90495 0.269531 1.52734C0.269531 1.14974 0.389974 0.83724 0.630859 0.589844C0.871745 0.335938 1.21029 0.208984 1.64648 0.208984Z" fill="white"/>
</svg>
