<svg width="100%" height="100%" viewBox="0 0 1229 833" fill="none" xmlns="http://www.w3.org/2000/svg">
<path d="M413.338 0H0L38.3663 57.5181L0 112.137H413.338L451.705 57.5181L413.338 0Z" fill="url(#paint0_linear)"/>
<path d="M131.688 59.7969L135.516 39.5625H141.355L135.047 68H129.148L124.52 48.9766L119.891 68H113.992L107.684 39.5625H113.523L117.371 59.7578L122.059 39.5625H127.02L131.688 59.7969ZM149.676 49.1719C151.173 47.375 153.055 46.4766 155.32 46.4766C159.904 46.4766 162.228 49.1393 162.293 54.4648V68H156.648V54.6211C156.648 53.4102 156.388 52.5182 155.867 51.9453C155.346 51.3594 154.48 51.0664 153.27 51.0664C151.616 51.0664 150.418 51.7044 149.676 52.9805V68H144.031V38H149.676V49.1719ZM174.441 60.0117L178.348 46.8672H184.402L175.906 71.2812L175.438 72.3945C174.174 75.1549 172.091 76.5352 169.188 76.5352C168.367 76.5352 167.534 76.4115 166.688 76.1641V71.8867L167.547 71.9062C168.615 71.9062 169.409 71.7435 169.93 71.418C170.464 71.0924 170.88 70.5521 171.18 69.7969L171.844 68.0586L164.441 46.8672H170.516L174.441 60.0117ZM205.379 63.8398C206.421 63.8398 207.267 63.5534 207.918 62.9805C208.569 62.4076 208.908 61.6458 208.934 60.6953H214.227C214.214 62.1276 213.823 63.4427 213.055 64.6406C212.286 65.8255 211.232 66.75 209.891 67.4141C208.562 68.0651 207.091 68.3906 205.477 68.3906C202.456 68.3906 200.073 67.4336 198.328 65.5195C196.583 63.5924 195.711 60.9362 195.711 57.5508V57.1797C195.711 53.9245 196.577 51.3268 198.309 49.3867C200.04 47.4466 202.417 46.4766 205.438 46.4766C208.081 46.4766 210.197 47.2318 211.785 48.7422C213.387 50.2396 214.201 52.2383 214.227 54.7383H208.934C208.908 53.6445 208.569 52.7591 207.918 52.082C207.267 51.3919 206.408 51.0469 205.34 51.0469C204.025 51.0469 203.029 51.5286 202.352 52.4922C201.688 53.4427 201.355 54.9922 201.355 57.1406V57.7266C201.355 59.901 201.688 61.4635 202.352 62.4141C203.016 63.3646 204.025 63.8398 205.379 63.8398ZM222.957 49.1719C224.454 47.375 226.336 46.4766 228.602 46.4766C233.185 46.4766 235.509 49.1393 235.574 54.4648V68H229.93V54.6211C229.93 53.4102 229.669 52.5182 229.148 51.9453C228.628 51.3594 227.762 51.0664 226.551 51.0664C224.897 51.0664 223.699 51.7044 222.957 52.9805V68H217.312V38H222.957V49.1719ZM238.953 57.2383C238.953 55.1419 239.357 53.2734 240.164 51.6328C240.971 49.9922 242.13 48.7227 243.641 47.8242C245.164 46.9258 246.928 46.4766 248.934 46.4766C251.785 46.4766 254.109 47.349 255.906 49.0938C257.716 50.8385 258.725 53.2083 258.934 56.2031L258.973 57.6484C258.973 60.8906 258.068 63.4948 256.258 65.4609C254.448 67.4141 252.02 68.3906 248.973 68.3906C245.926 68.3906 243.491 67.4141 241.668 65.4609C239.858 63.5078 238.953 60.8516 238.953 57.4922V57.2383ZM244.598 57.6484C244.598 59.6536 244.975 61.1901 245.73 62.2578C246.486 63.3125 247.566 63.8398 248.973 63.8398C250.34 63.8398 251.408 63.319 252.176 62.2773C252.944 61.2227 253.328 59.543 253.328 57.2383C253.328 55.2721 252.944 53.7487 252.176 52.668C251.408 51.5872 250.327 51.0469 248.934 51.0469C247.553 51.0469 246.486 51.5872 245.73 52.668C244.975 53.7357 244.598 55.3958 244.598 57.6484ZM261.57 57.2383C261.57 55.1419 261.974 53.2734 262.781 51.6328C263.589 49.9922 264.747 48.7227 266.258 47.8242C267.781 46.9258 269.546 46.4766 271.551 46.4766C274.402 46.4766 276.727 47.349 278.523 49.0938C280.333 50.8385 281.342 53.2083 281.551 56.2031L281.59 57.6484C281.59 60.8906 280.685 63.4948 278.875 65.4609C277.065 67.4141 274.637 68.3906 271.59 68.3906C268.543 68.3906 266.108 67.4141 264.285 65.4609C262.475 63.5078 261.57 60.8516 261.57 57.4922V57.2383ZM267.215 57.6484C267.215 59.6536 267.592 61.1901 268.348 62.2578C269.103 63.3125 270.184 63.8398 271.59 63.8398C272.957 63.8398 274.025 63.319 274.793 62.2773C275.561 61.2227 275.945 59.543 275.945 57.2383C275.945 55.2721 275.561 53.7487 274.793 52.668C274.025 51.5872 272.944 51.0469 271.551 51.0469C270.171 51.0469 269.103 51.5872 268.348 52.668C267.592 53.7357 267.215 55.3958 267.215 57.6484ZM296.512 62.1602C296.512 61.4701 296.167 60.9297 295.477 60.5391C294.799 60.1354 293.706 59.7773 292.195 59.4648C287.169 58.4102 284.656 56.2747 284.656 53.0586C284.656 51.1836 285.431 49.6211 286.98 48.3711C288.543 47.1081 290.581 46.4766 293.094 46.4766C295.776 46.4766 297.918 47.1081 299.52 48.3711C301.134 49.6341 301.941 51.2747 301.941 53.293H296.297C296.297 52.4857 296.036 51.8216 295.516 51.3008C294.995 50.7669 294.181 50.5 293.074 50.5C292.124 50.5 291.388 50.7148 290.867 51.1445C290.346 51.5742 290.086 52.1211 290.086 52.7852C290.086 53.4102 290.379 53.918 290.965 54.3086C291.564 54.6862 292.566 55.0182 293.973 55.3047C295.379 55.5781 296.564 55.8906 297.527 56.2422C300.509 57.3359 302 59.2305 302 61.9258C302 63.8529 301.173 65.4154 299.52 66.6133C297.866 67.7982 295.73 68.3906 293.113 68.3906C291.342 68.3906 289.767 68.0781 288.387 67.4531C287.02 66.8151 285.945 65.9492 285.164 64.8555C284.383 63.7487 283.992 62.5573 283.992 61.2812H289.344C289.396 62.2839 289.767 63.0521 290.457 63.5859C291.147 64.1198 292.072 64.3867 293.23 64.3867C294.311 64.3867 295.125 64.1849 295.672 63.7812C296.232 63.3646 296.512 62.8242 296.512 62.1602ZM315.379 68.3906C312.28 68.3906 309.754 67.4401 307.801 65.5391C305.861 63.638 304.891 61.1055 304.891 57.9414V57.3945C304.891 55.2721 305.301 53.3776 306.121 51.7109C306.941 50.0312 308.1 48.7422 309.598 47.8438C311.108 46.9323 312.827 46.4766 314.754 46.4766C317.645 46.4766 319.917 47.388 321.57 49.2109C323.237 51.0339 324.07 53.6185 324.07 56.9648V59.2695H310.613C310.796 60.6497 311.342 61.7565 312.254 62.5898C313.178 63.4232 314.344 63.8398 315.75 63.8398C317.924 63.8398 319.624 63.0521 320.848 61.4766L323.621 64.582C322.775 65.7799 321.629 66.7174 320.184 67.3945C318.738 68.0586 317.137 68.3906 315.379 68.3906ZM314.734 51.0469C313.615 51.0469 312.703 51.4245 312 52.1797C311.31 52.9349 310.867 54.0156 310.672 55.4219H318.523V54.9727C318.497 53.7227 318.159 52.7591 317.508 52.082C316.857 51.3919 315.932 51.0469 314.734 51.0469ZM349.91 65.8516C348.517 67.5443 346.59 68.3906 344.129 68.3906C341.863 68.3906 340.132 67.7396 338.934 66.4375C337.749 65.1354 337.143 63.2279 337.117 60.7148V46.8672H342.762V60.5195C342.762 62.7201 343.764 63.8203 345.77 63.8203C347.684 63.8203 348.999 63.1562 349.715 61.8281V46.8672H355.379V68H350.066L349.91 65.8516ZM371.082 62.1602C371.082 61.4701 370.737 60.9297 370.047 60.5391C369.37 60.1354 368.276 59.7773 366.766 59.4648C361.74 58.4102 359.227 56.2747 359.227 53.0586C359.227 51.1836 360.001 49.6211 361.551 48.3711C363.113 47.1081 365.151 46.4766 367.664 46.4766C370.346 46.4766 372.488 47.1081 374.09 48.3711C375.704 49.6341 376.512 51.2747 376.512 53.293H370.867C370.867 52.4857 370.607 51.8216 370.086 51.3008C369.565 50.7669 368.751 50.5 367.645 50.5C366.694 50.5 365.958 50.7148 365.438 51.1445C364.917 51.5742 364.656 52.1211 364.656 52.7852C364.656 53.4102 364.949 53.918 365.535 54.3086C366.134 54.6862 367.137 55.0182 368.543 55.3047C369.949 55.5781 371.134 55.8906 372.098 56.2422C375.079 57.3359 376.57 59.2305 376.57 61.9258C376.57 63.8529 375.743 65.4154 374.09 66.6133C372.436 67.7982 370.301 68.3906 367.684 68.3906C365.913 68.3906 364.337 68.0781 362.957 67.4531C361.59 66.8151 360.516 65.9492 359.734 64.8555C358.953 63.7487 358.562 62.5573 358.562 61.2812H363.914C363.966 62.2839 364.337 63.0521 365.027 63.5859C365.717 64.1198 366.642 64.3867 367.801 64.3867C368.882 64.3867 369.695 64.1849 370.242 63.7812C370.802 63.3646 371.082 62.8242 371.082 62.1602Z" fill="#2AF6FF"/>
<path d="M430.157 831.637C525.054 831.637 601.984 753.724 601.984 657.614C601.984 561.503 525.054 483.59 430.157 483.59C335.26 483.59 258.331 561.503 258.331 657.614C258.331 753.724 335.26 831.637 430.157 831.637Z" stroke="#FFBE3F" stroke-width="0.92" stroke-miterlimit="10"/>
<path d="M846.584 831.637C941.481 831.637 1018.41 753.724 1018.41 657.614C1018.41 561.503 941.481 483.59 846.584 483.59C751.687 483.59 674.758 561.503 674.758 657.614C674.758 753.724 751.687 831.637 846.584 831.637Z" stroke="#DF0045" stroke-width="0.92" stroke-miterlimit="10"/>
<path d="M384.647 408.664C415.151 317.654 367.032 218.832 277.171 187.938C187.31 157.044 89.7355 205.778 59.2318 296.788C28.7281 387.798 76.8467 486.62 166.708 517.514C256.569 548.408 354.144 499.674 384.647 408.664Z" stroke="#42BEE5" stroke-width="0.92" stroke-miterlimit="10"/>
<path d="M638.371 526.723C733.268 526.723 810.197 448.81 810.197 352.699C810.197 256.589 733.268 178.676 638.371 178.676C543.474 178.676 466.544 256.589 466.544 352.699C466.544 448.81 543.474 526.723 638.371 526.723Z" stroke="#5100EB" stroke-width="0.92" stroke-miterlimit="10"/>
<path d="M1226.67 354.524C1227.64 258.419 1151.51 179.707 1056.62 178.718C961.727 177.728 884.01 254.835 883.033 350.94C882.056 447.045 958.189 525.756 1053.08 526.746C1147.97 527.736 1225.69 450.629 1226.67 354.524Z" stroke="#0ECC92" stroke-width="0.92" stroke-miterlimit="10"/>
<path d="M430.157 822.543C397.944 822.546 366.453 812.875 339.666 794.752C312.88 776.629 292.002 750.868 279.673 720.726C267.344 690.585 264.117 657.418 270.4 625.419C276.684 593.421 292.196 564.028 314.974 540.958C337.753 517.889 366.774 502.178 398.369 495.815C429.964 489.451 462.712 492.719 492.473 505.206C522.233 517.693 547.669 538.838 565.564 565.966C583.458 593.095 593.008 624.989 593.004 657.614C592.952 701.34 575.779 743.26 545.25 774.179C514.722 805.097 473.331 822.49 430.157 822.543ZM430.157 503.631C400.074 503.627 370.666 512.658 345.651 529.582C320.636 546.506 301.138 570.563 289.623 598.71C278.109 626.857 275.094 657.831 280.96 687.713C286.827 717.596 301.311 745.045 322.582 766.59C343.852 788.136 370.953 802.809 400.458 808.754C429.962 814.699 460.545 811.65 488.339 799.991C516.132 788.333 539.887 768.589 556.601 743.256C573.314 717.924 582.235 688.141 582.235 657.673C582.21 616.824 566.181 577.655 537.669 548.764C509.157 519.872 470.49 503.619 430.157 503.572V503.631Z" fill="#FFBE3F"/>
<path d="M846.584 822.543C814.37 822.546 782.879 812.875 756.093 794.752C729.307 776.629 708.429 750.868 696.1 720.726C683.77 690.585 680.543 657.418 686.827 625.419C693.111 593.421 708.622 564.028 731.401 540.958C754.179 517.889 783.201 502.178 814.796 495.815C846.39 489.451 879.139 492.719 908.9 505.206C938.66 517.693 964.096 538.838 981.991 565.966C999.885 593.095 1009.43 624.989 1009.43 657.614C1009.38 701.34 992.205 743.26 961.677 774.179C931.148 805.097 889.758 822.49 846.584 822.543ZM846.584 503.631C816.501 503.627 787.093 512.658 762.078 529.582C737.063 546.506 717.565 570.563 706.05 598.71C694.535 626.857 691.521 657.831 697.387 687.713C703.254 717.596 717.738 745.045 739.008 766.59C760.279 788.136 787.38 802.809 816.885 808.754C846.389 814.699 876.972 811.65 904.765 799.991C932.558 788.333 956.314 768.589 973.028 743.256C989.741 717.924 998.662 688.141 998.662 657.673C998.636 616.824 982.608 577.655 954.096 548.764C925.583 519.872 886.917 503.619 846.584 503.572V503.631Z" fill="#DF0045"/>
<path d="M221.944 517.628C189.736 517.628 158.251 507.955 131.471 489.832C104.691 471.71 83.8189 445.951 71.4934 415.815C59.168 385.678 55.9431 352.516 62.2265 320.523C68.51 288.53 84.0196 259.143 106.794 236.077C129.569 213.011 158.585 197.303 190.174 190.94C221.763 184.576 254.506 187.842 284.263 200.325C314.019 212.808 339.452 233.947 357.346 261.07C375.24 288.192 384.79 320.079 384.79 352.699C384.744 396.426 367.572 438.349 337.043 469.269C306.513 500.189 265.119 517.581 221.944 517.628ZM221.944 198.716C191.859 198.712 162.448 207.745 137.432 224.671C112.416 241.598 92.9178 265.658 81.4047 293.809C69.8915 321.959 66.8801 352.936 72.7513 382.82C78.6226 412.704 93.1127 440.154 114.389 461.696C135.665 483.239 162.772 497.908 192.28 503.846C221.789 509.785 252.373 506.727 280.166 495.06C307.958 483.392 331.709 463.639 348.416 438.299C365.123 412.958 374.034 383.169 374.022 352.699C373.976 311.864 357.938 272.715 329.428 243.841C300.918 214.966 262.263 198.723 221.944 198.677V198.716Z" fill="#42BEE5"/>
<path d="M638.371 517.628C606.163 517.628 574.678 507.955 547.898 489.832C521.118 471.71 500.246 445.951 487.92 415.815C475.595 385.678 472.37 352.516 478.653 320.523C484.937 288.53 500.446 259.143 523.221 236.077C545.995 213.011 575.012 197.303 606.601 190.94C638.19 184.576 670.933 187.842 700.689 200.325C730.446 212.808 755.879 233.947 773.773 261.07C791.666 288.192 801.217 320.079 801.217 352.699C801.171 396.426 783.999 438.349 753.469 469.269C722.94 500.189 681.546 517.581 638.371 517.628ZM638.371 198.716C608.287 198.712 578.878 207.744 553.862 224.669C528.847 241.593 509.349 265.651 497.835 293.8C486.321 321.948 483.307 352.922 489.175 382.805C495.043 412.689 509.53 440.138 530.802 461.682C552.074 483.227 579.177 497.898 608.683 503.841C638.189 509.785 668.772 506.732 696.565 495.071C724.358 483.409 748.113 463.662 764.824 438.327C781.535 412.992 790.453 383.207 790.449 352.739C790.413 311.897 774.38 272.738 745.869 243.854C717.357 214.971 678.697 198.723 638.371 198.677V198.716Z" fill="#5100EB"/>
<path d="M1054.8 517.628C1022.59 517.635 991.099 507.969 964.314 489.851C937.529 471.733 916.651 445.978 904.319 415.842C891.988 385.706 888.757 352.543 895.036 320.547C901.315 288.552 916.822 259.161 939.595 236.091C962.368 213.021 991.384 197.31 1022.97 190.943C1054.56 184.576 1087.31 187.839 1117.07 200.321C1146.83 212.803 1172.26 233.942 1190.16 261.066C1208.05 288.189 1217.61 320.078 1217.61 352.699C1217.55 396.418 1200.39 438.332 1169.87 469.25C1139.35 500.167 1097.96 517.565 1054.8 517.628ZM1054.8 198.716C1024.71 198.716 995.307 207.751 970.294 224.678C945.282 241.605 925.787 265.665 914.276 293.813C902.764 321.962 899.753 352.936 905.624 382.818C911.494 412.699 925.982 440.147 947.255 461.689C968.528 483.232 995.631 497.901 1025.14 503.843C1054.64 509.784 1085.22 506.731 1113.02 495.069C1140.81 483.407 1164.56 463.66 1181.27 438.325C1197.98 412.99 1206.9 383.206 1206.89 352.738C1206.86 311.893 1190.82 272.731 1162.31 243.848C1133.79 214.964 1095.13 198.718 1054.8 198.677V198.716Z" fill="#FCA3C3"/>
<path d="M1048.21 211.512C1013.53 213.272 980.74 228.023 956.203 252.9C931.665 277.777 917.133 311.003 915.431 346.124C914.018 376.039 922.096 405.627 938.484 430.557C944.782 440.014 948.131 451.169 948.096 462.577C948.061 473.984 944.645 485.118 938.29 494.536L936.812 496.702C930.322 506.108 921.199 513.331 910.619 517.439C900.039 521.548 888.487 522.354 877.451 519.754C857.198 515.132 836.184 515.132 815.931 519.754C804.882 522.381 793.308 521.592 782.706 517.49C772.103 513.388 762.959 506.16 756.453 496.741L754.976 494.576C748.623 485.155 745.21 474.02 745.179 462.613C745.148 451.206 748.5 440.052 754.801 430.596C768.713 409.315 776.675 384.615 777.839 359.119C779.004 333.623 773.329 308.283 761.416 285.792C749.504 263.3 731.799 244.496 710.182 231.377C688.565 218.258 663.843 211.314 638.642 211.282C613.441 211.25 588.702 218.131 567.052 231.196C545.403 244.26 527.651 263.019 515.683 285.48C503.715 307.941 497.977 333.266 499.079 358.765C500.181 384.264 508.081 408.984 521.941 430.301C528.289 439.857 531.662 451.121 531.624 462.639C531.586 474.156 528.139 485.398 521.727 494.91L520.483 496.741C513.977 506.16 504.832 513.388 494.23 517.49C483.627 521.592 472.054 522.381 461.004 519.754C440.752 515.132 419.738 515.132 399.485 519.754C388.438 522.379 376.868 521.59 366.269 517.487C355.67 513.385 346.529 506.159 340.026 496.741L338.549 494.576C332.191 485.158 328.775 474.022 328.744 462.613C328.713 451.205 332.068 440.05 338.374 430.596C356.221 403.198 364.081 370.357 360.604 337.724C357.126 305.09 342.528 274.705 319.32 251.794C296.112 228.884 265.746 214.881 233.446 212.195C201.146 209.509 168.932 218.308 142.345 237.078C115.759 255.848 96.4621 283.415 87.7756 315.038C79.0891 346.66 81.5556 380.359 94.7509 410.338C107.946 440.318 131.045 464.702 160.074 479.297C189.103 493.891 222.246 497.784 253.802 490.304C264.725 487.805 276.137 488.687 286.559 492.836C296.98 496.985 305.931 504.209 312.25 513.572L313.747 515.738C320.065 525.164 323.444 536.293 323.447 547.685C323.451 559.077 320.078 570.209 313.766 579.638C299.852 600.918 291.889 625.618 290.722 651.114C289.555 676.61 295.228 701.95 307.139 724.442C319.049 746.935 336.753 765.74 358.369 778.861C379.985 791.982 404.706 798.929 429.907 798.963C455.108 798.997 479.848 792.117 501.498 779.055C523.149 765.993 540.902 747.235 552.872 724.775C564.842 702.314 570.582 676.99 569.482 651.491C568.383 625.992 560.484 601.271 546.626 579.953C540.278 570.397 536.905 559.133 536.943 547.615C536.981 536.098 540.428 524.857 546.84 515.344L548.084 513.513C554.591 504.095 563.735 496.866 574.336 492.761C584.938 488.656 596.511 487.861 607.562 490.481C627.806 495.127 648.819 495.127 669.062 490.481C680.114 487.861 691.687 488.656 702.288 492.761C712.89 496.866 722.034 504.095 728.541 513.513L730.018 515.679C736.374 525.094 739.789 536.226 739.82 547.631C739.851 559.036 736.497 570.188 730.193 579.638C716.279 600.918 708.315 625.618 707.148 651.114C705.981 676.61 711.655 701.95 723.565 724.442C735.476 746.935 753.18 765.74 774.796 778.861C796.412 791.982 821.133 798.929 846.334 798.963C871.535 798.997 896.274 792.117 917.925 779.055C939.576 765.993 957.329 747.235 969.299 724.775C981.269 702.314 987.009 676.99 985.909 651.491C984.809 625.992 976.911 601.271 963.053 579.953C956.704 570.397 953.331 559.133 953.369 547.615C953.407 536.098 956.855 524.857 963.267 515.344L964.53 513.513C970.849 504.15 979.8 496.926 990.222 492.777C1000.64 488.628 1012.06 487.746 1022.98 490.245C1042.4 494.84 1062.57 495.166 1082.12 491.199C1101.68 487.233 1120.17 479.067 1136.34 467.251C1152.52 455.435 1166 440.245 1175.89 422.703C1185.78 405.162 1191.84 385.678 1193.66 365.564C1195.48 345.45 1193.03 325.174 1186.46 306.102C1179.89 287.031 1169.36 269.608 1155.58 255.007C1141.8 240.405 1125.09 228.966 1106.57 221.46C1088.06 213.954 1068.17 210.555 1048.25 211.492L1048.21 211.512Z" fill="#6165DB"/>
<path d="M422.168 250.824C442.629 250.824 459.216 234.026 459.216 213.303C459.216 192.581 442.629 175.782 422.168 175.782C401.708 175.782 385.121 192.581 385.121 213.303C385.121 234.026 401.708 250.824 422.168 250.824Z" stroke="white" stroke-width="1.85" stroke-linecap="round" stroke-linejoin="round"/>
<path d="M431.285 307.107C431.285 309.373 430.621 311.588 429.378 313.472C428.135 315.356 426.369 316.824 424.301 317.692C422.234 318.559 419.96 318.786 417.765 318.344C415.571 317.902 413.555 316.81 411.973 315.208C410.391 313.606 409.314 311.564 408.877 309.342C408.441 307.119 408.665 304.816 409.521 302.722C410.377 300.629 411.827 298.839 413.687 297.58C415.548 296.321 417.735 295.649 419.972 295.649C422.973 295.649 425.85 296.857 427.972 299.005C430.093 301.154 431.285 304.068 431.285 307.107V307.107Z" stroke="white" stroke-width="0.56" stroke-linecap="round" stroke-linejoin="round"/>
<path d="M487.676 420.661C498.349 409.852 498.349 392.327 487.676 381.518C477.004 370.709 459.7 370.709 449.027 381.518C438.355 392.327 438.355 409.852 449.027 420.661C459.7 431.47 477.004 431.47 487.676 420.661Z" stroke="white" stroke-width="1.36" stroke-linecap="round" stroke-linejoin="round"/>
<path d="M1075.42 589.796C1075.42 591.836 1074.82 593.831 1073.7 595.527C1072.59 597.223 1070.99 598.545 1069.13 599.326C1067.27 600.107 1065.22 600.311 1063.25 599.913C1061.27 599.515 1059.46 598.533 1058.03 597.09C1056.61 595.647 1055.64 593.809 1055.25 591.808C1054.85 589.807 1055.05 587.733 1055.83 585.848C1056.6 583.963 1057.9 582.352 1059.58 581.219C1061.25 580.085 1063.22 579.48 1065.24 579.48C1067.94 579.48 1070.53 580.567 1072.44 582.502C1074.35 584.436 1075.42 587.06 1075.42 589.796Z" stroke="white" stroke-width="0.51" stroke-linecap="round" stroke-linejoin="round"/>
<path d="M1064.19 626.038C1064.19 628.693 1063.41 631.289 1061.95 633.497C1060.49 635.705 1058.42 637.426 1056 638.442C1053.58 639.458 1050.91 639.724 1048.34 639.206C1045.77 638.688 1043.41 637.409 1041.56 635.532C1039.7 633.654 1038.44 631.262 1037.93 628.657C1037.42 626.053 1037.68 623.354 1038.68 620.9C1039.69 618.447 1041.38 616.35 1043.56 614.875C1045.74 613.4 1048.31 612.612 1050.93 612.612C1054.45 612.612 1057.82 614.027 1060.3 616.545C1062.79 619.062 1064.19 622.477 1064.19 626.038Z" stroke="white" stroke-width="0.66" stroke-linecap="round" stroke-linejoin="round"/>
<path d="M211.428 612.238C218.75 612.238 224.685 606.227 224.685 598.812C224.685 591.398 218.75 585.387 211.428 585.387C204.107 585.387 198.172 591.398 198.172 598.812C198.172 606.227 204.107 612.238 211.428 612.238Z" stroke="white" stroke-width="0.66" stroke-linecap="round" stroke-linejoin="round"/>
<path d="M640.023 644.346C656.898 644.346 670.578 630.491 670.578 613.399C670.578 596.308 656.898 582.453 640.023 582.453C623.147 582.453 609.467 596.308 609.467 613.399C609.467 630.491 623.147 644.346 640.023 644.346Z" stroke="white" stroke-width="1.52" stroke-linecap="round" stroke-linejoin="round"/>
<path d="M900.986 187.697C904.259 167.182 890.492 147.863 870.236 144.548C849.98 141.232 830.905 155.175 827.631 175.69C824.358 196.206 838.125 215.524 858.381 218.84C878.637 222.155 897.712 208.212 900.986 187.697Z" stroke="white" stroke-width="1.85527" stroke-linecap="round" stroke-linejoin="round"/>
<path d="M1108.31 571.115C1114.8 571.115 1120.07 565.782 1120.07 559.204C1120.07 552.627 1114.8 547.294 1108.31 547.294C1101.81 547.294 1096.55 552.627 1096.55 559.204C1096.55 565.782 1101.81 571.115 1108.31 571.115Z" fill="white"/>
<path d="M888.802 468.689C892.044 468.689 894.672 466.027 894.672 462.743C894.672 459.46 892.044 456.798 888.802 456.798C885.56 456.798 882.932 459.46 882.932 462.743C882.932 466.027 885.56 468.689 888.802 468.689Z" fill="white"/>
<path d="M344.257 296.914C379.336 287.52 400.254 251.105 390.98 215.578C381.705 180.05 345.749 158.865 310.67 168.258C275.591 177.651 254.673 214.067 263.948 249.594C273.223 285.121 309.178 306.307 344.257 296.914Z" fill="white"/>
<path d="M327.47 290.019C358.794 290.019 384.188 264.301 384.188 232.576C384.188 200.851 358.794 175.132 327.47 175.132C296.145 175.132 270.751 200.851 270.751 232.576C270.751 264.301 296.145 290.019 327.47 290.019Z" fill="#42BEE5"/>
<path d="M938.231 299.114C925.237 299.114 912.535 295.211 901.731 287.9C890.927 280.589 882.506 270.197 877.534 258.039C872.561 245.88 871.26 232.502 873.795 219.594C876.33 206.687 882.587 194.831 891.775 185.526C900.963 176.22 912.67 169.883 925.414 167.316C938.158 164.748 951.368 166.066 963.373 171.102C975.378 176.138 985.638 184.667 992.857 195.609C1000.08 206.551 1003.93 219.415 1003.93 232.575C1003.91 250.218 996.987 267.133 984.67 279.608C972.352 292.083 955.651 299.098 938.231 299.114Z" fill="white"/>
<path d="M938.231 290.019C969.556 290.019 994.95 264.301 994.95 232.576C994.95 200.851 969.556 175.132 938.231 175.132C906.907 175.132 881.513 200.851 881.513 232.576C881.513 264.301 906.907 290.019 938.231 290.019Z" fill="#8261C8"/>
<path d="M649.632 584.939C684.711 575.545 705.63 539.13 696.355 503.603C687.08 468.075 651.124 446.889 616.045 456.283C580.967 465.676 560.048 502.092 569.323 537.619C578.598 573.146 614.554 594.332 649.632 584.939Z" fill="white"/>
<path d="M632.85 578.024C664.175 578.024 689.569 552.306 689.569 520.581C689.569 488.855 664.175 463.137 632.85 463.137C601.526 463.137 576.132 488.855 576.132 520.581C576.132 552.306 601.526 578.024 632.85 578.024Z" fill="#5100EB"/>
<path d="M279.981 775.602C315.087 766.315 336.112 729.962 326.941 694.407C317.77 658.852 281.877 637.558 246.771 646.846C211.665 656.134 190.64 692.487 199.81 728.042C208.981 763.597 244.874 784.89 279.981 775.602Z" fill="white"/>
<path d="M263.385 768.662C294.709 768.662 320.103 742.944 320.103 711.219C320.103 679.494 294.709 653.775 263.385 653.775C232.06 653.775 206.666 679.494 206.666 711.219C206.666 742.944 232.06 768.662 263.385 768.662Z" fill="#FFBE3F"/>
<path d="M1019.1 775.608C1054.18 766.214 1075.09 729.799 1065.82 694.271C1056.54 658.744 1020.59 637.558 985.51 646.952C950.431 656.345 929.513 692.761 938.787 728.288C948.062 763.815 984.018 785.001 1019.1 775.608Z" fill="white"/>
<path d="M1002.32 768.662C1033.64 768.662 1059.03 742.944 1059.03 711.219C1059.03 679.494 1033.64 653.775 1002.32 653.775C970.992 653.775 945.598 679.494 945.598 711.219C945.598 742.944 970.992 768.662 1002.32 768.662Z" fill="#DF0045"/>
<path d="M221.944 475.834C289.091 475.834 343.525 420.705 343.525 352.699C343.525 284.693 289.091 229.563 221.944 229.563C154.797 229.563 100.363 284.693 100.363 352.699C100.363 420.705 154.797 475.834 221.944 475.834Z" fill="white"/>
<path d="M330.39 383.422C347.148 322.758 312.176 259.821 252.277 242.849C192.379 225.877 130.237 261.297 113.479 321.961C96.7211 382.626 131.694 445.562 191.592 462.534C251.49 479.506 313.633 444.087 330.39 383.422Z" stroke="#42BEE5" stroke-width="0.92" stroke-miterlimit="10"/>
<path d="M430.157 780.749C497.305 780.749 551.738 725.62 551.738 657.614C551.738 589.608 497.305 534.479 430.157 534.479C363.01 534.479 308.577 589.608 308.577 657.614C308.577 725.62 363.01 780.749 430.157 780.749Z" fill="white"/>
<path d="M430.157 771.654C407.882 771.654 386.108 764.964 367.587 752.431C349.066 739.897 334.631 722.082 326.108 701.239C317.584 680.396 315.355 657.461 319.702 635.335C324.049 613.209 334.777 592.886 350.53 576.935C366.282 560.984 386.351 550.122 408.198 545.723C430.046 541.325 452.69 543.586 473.269 552.222C493.847 560.858 511.435 575.481 523.807 594.24C536.18 613 542.781 635.054 542.778 657.614C542.742 687.852 530.864 716.84 509.751 738.219C488.638 759.599 460.013 771.623 430.157 771.654V771.654Z" stroke="#FFBE3F" stroke-width="0.92" stroke-miterlimit="10"/>
<path d="M638.371 475.834C705.518 475.834 759.951 420.705 759.951 352.699C759.951 284.693 705.518 229.563 638.371 229.563C571.223 229.563 516.79 284.693 516.79 352.699C516.79 420.705 571.223 475.834 638.371 475.834Z" fill="white"/>
<path d="M751.71 358.735C756.064 295.742 709.172 241.101 646.973 236.691C584.775 232.281 530.823 279.773 526.47 342.767C522.116 405.761 569.008 460.402 631.206 464.811C693.405 469.221 747.356 421.729 751.71 358.735Z" stroke="#5100EB" stroke-width="0.922251" stroke-miterlimit="10"/>
<path d="M846.584 780.749C913.731 780.749 968.165 725.62 968.165 657.614C968.165 589.608 913.731 534.479 846.584 534.479C779.437 534.479 725.003 589.608 725.003 657.614C725.003 725.62 779.437 780.749 846.584 780.749Z" fill="white"/>
<path d="M846.584 771.654C824.309 771.654 802.534 764.964 784.013 752.431C765.493 739.897 751.058 722.082 742.535 701.239C734.011 680.396 731.782 657.461 736.129 635.335C740.476 613.209 751.204 592.886 766.956 576.935C782.708 560.984 802.777 550.122 824.625 545.723C846.472 541.325 869.117 543.586 889.695 552.222C910.274 560.858 927.861 575.481 940.234 594.24C952.606 613 959.208 635.054 959.204 657.614C959.168 687.852 947.291 716.84 926.178 738.219C905.064 759.599 876.44 771.623 846.584 771.654V771.654Z" stroke="#DF0045" stroke-width="0.92" stroke-miterlimit="10"/>
<path d="M1054.8 475.834C1121.94 475.834 1176.38 420.705 1176.38 352.699C1176.38 284.693 1121.94 229.563 1054.8 229.563C987.65 229.563 933.217 284.693 933.217 352.699C933.217 420.705 987.65 475.834 1054.8 475.834Z" fill="white"/>
<path d="M1054.8 466.759C1117 466.759 1167.42 415.693 1167.42 352.699C1167.42 289.706 1117 238.639 1054.8 238.639C992.599 238.639 942.177 289.706 942.177 352.699C942.177 415.693 992.599 466.759 1054.8 466.759Z" stroke="#0ECC92" stroke-width="0.92" stroke-miterlimit="10"/>
<path d="M313.789 220.172C313.789 221.579 313.48 222.565 312.862 223.131C312.145 223.782 310.827 224.108 308.906 224.108C307.298 224.108 305.866 223.821 304.61 223.249L305.108 220.934C305.772 221.136 306.393 221.289 306.973 221.393C307.637 221.51 308.295 221.569 308.946 221.569C309.707 221.569 310.209 221.474 310.449 221.286C310.677 221.097 310.791 220.719 310.791 220.153C310.791 219.541 310.69 219.147 310.489 218.971C310.261 218.782 309.613 218.571 308.545 218.336C306.95 217.985 305.931 217.552 305.489 217.038C305.065 216.543 304.854 215.566 304.854 214.108C304.854 212.741 305.163 211.79 305.781 211.256C306.446 210.683 307.67 210.397 309.453 210.397C310.072 210.397 310.703 210.43 311.348 210.495C312.071 210.566 312.783 210.68 313.487 210.836L313.194 213.356C311.709 213.102 310.476 212.975 309.492 212.975C308.822 212.975 308.379 213.056 308.164 213.219C307.956 213.375 307.852 213.701 307.852 214.196C307.852 214.827 307.949 215.224 308.145 215.387C308.327 215.537 308.949 215.739 310.01 215.993C311.729 216.403 312.809 216.878 313.252 217.418C313.48 217.705 313.63 218.076 313.701 218.532C313.76 218.877 313.789 219.424 313.789 220.172ZM321.406 213.249V223.913H318.408V213.249H314.824V210.592H324.981V213.249H321.406ZM326.533 223.913V210.592H334.912V213.249H329.531V215.69H334.492V218.356H329.531V221.256H334.912V223.913H326.533ZM347.1 216.11C347.1 218.616 345.567 219.87 342.5 219.87H340.215V223.913H337.217V210.592H342.656C344.239 210.592 345.384 210.911 346.094 211.549C346.765 212.148 347.1 213.089 347.1 214.372V216.11ZM344.102 214.655C344.102 213.717 343.568 213.249 342.5 213.249H340.215V217.272H342.5C343.568 217.272 344.102 216.787 344.102 215.817V214.655Z" fill="white"/>
<path d="M325.646 249.045C325.646 250.959 325.099 252.429 324.005 253.455C322.718 254.639 320.69 255.232 317.921 255.232C315.141 255.232 313.113 254.639 311.837 253.455C310.732 252.429 310.179 250.959 310.179 249.045V238.125C310.179 236.211 310.732 234.741 311.837 233.716C313.113 232.531 315.141 231.938 317.921 231.938C320.69 231.938 322.718 232.531 324.005 233.716C325.099 234.741 325.646 236.211 325.646 238.125V249.045ZM315.221 248.345C315.221 249.997 316.121 250.823 317.921 250.823C319.71 250.823 320.604 249.997 320.604 248.345V238.826C320.604 237.174 319.71 236.348 317.921 236.348C316.121 236.348 315.221 237.174 315.221 238.826V248.345ZM333.695 254.89V238.125L329.747 240.261L327.577 236.091L334.191 232.28H338.737V254.89H333.695Z" fill="white"/>
<path d="M249.846 698.497C249.846 699.903 249.537 700.89 248.918 701.456C248.202 702.107 246.884 702.433 244.963 702.433C243.355 702.433 241.923 702.146 240.666 701.573L241.164 699.259C241.828 699.461 242.45 699.614 243.03 699.718C243.694 699.835 244.351 699.894 245.002 699.894C245.764 699.894 246.265 699.799 246.506 699.61C246.734 699.422 246.848 699.044 246.848 698.478C246.848 697.866 246.747 697.472 246.545 697.296C246.317 697.107 245.67 696.896 244.602 696.661C243.007 696.31 241.988 695.877 241.545 695.362C241.122 694.868 240.91 693.891 240.91 692.433C240.91 691.065 241.22 690.115 241.838 689.581C242.502 689.008 243.726 688.722 245.51 688.722C246.128 688.722 246.76 688.754 247.405 688.819C248.127 688.891 248.84 689.005 249.543 689.161L249.25 691.681C247.766 691.427 246.532 691.3 245.549 691.3C244.878 691.3 244.436 691.381 244.221 691.544C244.013 691.7 243.908 692.026 243.908 692.521C243.908 693.152 244.006 693.549 244.201 693.712C244.384 693.862 245.005 694.063 246.067 694.317C247.785 694.728 248.866 695.203 249.309 695.743C249.537 696.03 249.686 696.401 249.758 696.856C249.817 697.201 249.846 697.748 249.846 698.497ZM257.463 691.573V702.237H254.465V691.573H250.881V688.917H261.037V691.573H257.463ZM262.59 702.237V688.917H270.969V691.573H265.588V694.015H270.549V696.681H265.588V699.581H270.969V702.237H262.59ZM283.156 694.435C283.156 696.941 281.623 698.194 278.557 698.194H276.272V702.237H273.274V688.917H278.713C280.295 688.917 281.441 689.236 282.151 689.874C282.821 690.473 283.156 691.414 283.156 692.696V694.435ZM280.158 692.979C280.158 692.042 279.625 691.573 278.557 691.573H276.272V695.597H278.557C279.625 695.597 280.158 695.112 280.158 694.142V692.979Z" fill="white"/>
<path d="M259.248 727.688C259.248 729.603 258.701 731.072 257.607 732.098C256.319 733.283 254.292 733.875 251.523 733.875C248.743 733.875 246.715 733.283 245.439 732.098C244.334 731.072 243.781 729.603 243.781 727.688V716.768C243.781 714.854 244.334 713.384 245.439 712.359C246.715 711.174 248.743 710.582 251.523 710.582C254.292 710.582 256.319 711.174 257.607 712.359C258.701 713.384 259.248 714.854 259.248 716.768V727.688ZM248.823 726.988C248.823 728.64 249.723 729.466 251.523 729.466C253.312 729.466 254.206 728.64 254.206 726.988V717.469C254.206 715.817 253.312 714.991 251.523 714.991C249.723 714.991 248.823 715.817 248.823 717.469V726.988ZM273.586 724.783C271.979 726.731 270.732 728.178 269.843 729.124H277.021V733.533H262.871V729.227L265.571 726.458C266.22 725.774 267.012 724.903 267.946 723.843C268.129 723.638 268.334 723.405 268.562 723.143L269.108 722.527C269.496 722.083 269.792 721.741 269.997 721.502C270.533 720.875 270.914 720.374 271.142 719.998C271.564 719.337 271.774 718.449 271.774 717.332V716.7C271.774 715.606 270.852 715.059 269.006 715.059C266.887 715.059 264.961 715.281 263.229 715.726L262.563 711.487C264.91 710.883 267.137 710.582 269.245 710.582C274.292 710.582 276.816 712.41 276.816 716.067V716.973C276.816 718.728 276.674 719.964 276.389 720.682C276.047 721.57 275.113 722.938 273.586 724.783Z" fill="white"/>
<path d="M619.312 507.858C619.312 509.265 619.003 510.251 618.385 510.817C617.668 511.468 616.35 511.794 614.429 511.794C612.821 511.794 611.389 511.507 610.133 510.935L610.631 508.62C611.295 508.822 611.916 508.975 612.496 509.079C613.16 509.196 613.817 509.255 614.469 509.255C615.23 509.255 615.732 509.16 615.972 508.972C616.2 508.783 616.314 508.405 616.314 507.839C616.314 507.227 616.213 506.833 616.011 506.657C615.784 506.468 615.136 506.257 614.068 506.022C612.473 505.671 611.454 505.238 611.011 504.724C610.588 504.229 610.377 503.252 610.377 501.794C610.377 500.427 610.686 499.476 611.304 498.942C611.969 498.369 613.192 498.083 614.976 498.083C615.595 498.083 616.226 498.116 616.871 498.181C617.594 498.252 618.306 498.366 619.01 498.522L618.717 501.042C617.232 500.788 615.998 500.661 615.015 500.661C614.345 500.661 613.902 500.743 613.687 500.905C613.479 501.062 613.375 501.387 613.375 501.882C613.375 502.513 613.472 502.91 613.668 503.073C613.85 503.223 614.472 503.425 615.533 503.679C617.252 504.089 618.332 504.564 618.775 505.104C619.003 505.391 619.153 505.762 619.224 506.218C619.283 506.563 619.312 507.11 619.312 507.858ZM626.929 500.935V511.599H623.931V500.935H620.347V498.278H630.504V500.935H626.929ZM632.056 511.599V498.278H640.435V500.935H635.054V503.376H640.015V506.042H635.054V508.942H640.435V511.599H632.056ZM652.623 503.796C652.623 506.302 651.09 507.556 648.023 507.556H645.738V511.599H642.74V498.278H648.179C649.761 498.278 650.907 498.597 651.617 499.235C652.288 499.834 652.623 500.775 652.623 502.058V503.796ZM649.625 502.341C649.625 501.403 649.091 500.935 648.023 500.935H645.738V504.958H648.023C649.091 504.958 649.625 504.473 649.625 503.503V502.341Z" fill="white"/>
<path d="M629.044 537.05C629.044 538.964 628.497 540.434 627.403 541.459C626.116 542.644 624.088 543.237 621.319 543.237C618.54 543.237 616.512 542.644 615.235 541.459C614.13 540.434 613.578 538.964 613.578 537.05V526.13C613.578 524.216 614.13 522.746 615.235 521.721C616.512 520.536 618.54 519.943 621.319 519.943C624.088 519.943 626.116 520.536 627.403 521.721C628.497 522.746 629.044 524.216 629.044 526.13V537.05ZM618.619 536.35C618.619 538.002 619.519 538.828 621.319 538.828C623.108 538.828 624.003 538.002 624.003 536.35V526.831C624.003 525.179 623.108 524.353 621.319 524.353C619.519 524.353 618.619 525.179 618.619 526.831V536.35ZM637.931 529.428C639.845 529.428 640.802 528.705 640.802 527.258V525.822C640.802 524.626 639.856 524.028 637.965 524.028C636.564 524.028 634.957 524.193 633.146 524.523L632.616 520.559C634.61 520.148 636.547 519.943 638.426 519.943C641.241 519.943 643.206 520.376 644.322 521.242C645.336 522.028 645.843 523.344 645.843 525.19V526.831C645.843 528.972 645.063 530.522 643.502 531.479C645.348 532.311 646.271 533.746 646.271 535.786V537.58C646.271 539.449 645.735 540.821 644.664 541.699C643.411 542.724 641.286 543.237 638.29 543.237C636.034 543.237 634.12 542.98 632.547 542.468L633.077 538.588C634.729 538.896 636.41 539.05 638.119 539.05C640.192 539.05 641.229 538.429 641.229 537.187V535.581C641.229 534.339 640.375 533.718 638.666 533.718H634.051V529.428H637.931Z" fill="white"/>
<path d="M988.778 698.497C988.778 699.903 988.469 700.89 987.851 701.456C987.134 702.107 985.816 702.433 983.896 702.433C982.287 702.433 980.855 702.146 979.599 701.573L980.097 699.259C980.761 699.461 981.382 699.614 981.962 699.718C982.626 699.835 983.284 699.894 983.935 699.894C984.696 699.894 985.198 699.799 985.438 699.61C985.666 699.422 985.78 699.044 985.78 698.478C985.78 697.866 985.679 697.472 985.478 697.296C985.25 697.107 984.602 696.896 983.534 696.661C981.939 696.31 980.92 695.877 980.478 695.362C980.054 694.868 979.843 693.891 979.843 692.433C979.843 691.065 980.152 690.115 980.771 689.581C981.435 689.008 982.659 688.722 984.442 688.722C985.061 688.722 985.692 688.754 986.337 688.819C987.06 688.891 987.772 689.005 988.476 689.161L988.183 691.681C986.698 691.427 985.465 691.3 984.481 691.3C983.811 691.3 983.368 691.381 983.153 691.544C982.945 691.7 982.841 692.026 982.841 692.521C982.841 693.152 982.938 693.549 983.134 693.712C983.316 693.862 983.938 694.063 984.999 694.317C986.718 694.728 987.799 695.203 988.241 695.743C988.469 696.03 988.619 696.401 988.69 696.856C988.749 697.201 988.778 697.748 988.778 698.497ZM996.396 691.573V702.237H993.397V691.573H989.813V688.917H999.97V691.573H996.396ZM1001.52 702.237V688.917H1009.9V691.573H1004.52V694.015H1009.48V696.681H1004.52V699.581H1009.9V702.237H1001.52ZM1022.09 694.435C1022.09 696.941 1020.56 698.194 1017.49 698.194H1015.2V702.237H1012.21V688.917H1017.65C1019.23 688.917 1020.37 689.236 1021.08 689.874C1021.75 690.473 1022.09 691.414 1022.09 692.696V694.435ZM1019.09 692.979C1019.09 692.042 1018.56 691.573 1017.49 691.573H1015.2V695.597H1017.49C1018.56 695.597 1019.09 695.112 1019.09 694.142V692.979Z" fill="white"/>
<path d="M996.975 727.688C996.975 729.603 996.428 731.072 995.334 732.098C994.047 733.283 992.019 733.875 989.25 733.875C986.47 733.875 984.442 733.283 983.166 732.098C982.061 731.072 981.508 729.603 981.508 727.688V716.768C981.508 714.854 982.061 713.384 983.166 712.359C984.442 711.174 986.47 710.582 989.25 710.582C992.019 710.582 994.047 711.174 995.334 712.359C996.428 713.384 996.975 714.854 996.975 716.768V727.688ZM986.55 726.988C986.55 728.64 987.45 729.466 989.25 729.466C991.039 729.466 991.933 728.64 991.933 726.988V717.469C991.933 715.817 991.039 714.991 989.25 714.991C987.45 714.991 986.55 715.817 986.55 717.469V726.988ZM1014.68 728.731V733.533H1009.71V728.731H999.418V724.356L1008.07 710.923H1014.68V724.646H1017.52V728.731H1014.68ZM1009.71 715.931L1004.36 724.646H1009.71V715.931Z" fill="white"/>
<path d="M924.712 223.574C924.712 224.98 924.403 225.967 923.785 226.533C923.069 227.184 921.75 227.51 919.83 227.51C918.222 227.51 916.789 227.223 915.533 226.65L916.031 224.336C916.695 224.538 917.317 224.691 917.896 224.795C918.56 224.912 919.218 224.971 919.869 224.971C920.63 224.971 921.132 224.876 921.373 224.688C921.6 224.499 921.714 224.121 921.714 223.555C921.714 222.943 921.613 222.549 921.412 222.373C921.184 222.184 920.536 221.973 919.468 221.738C917.873 221.387 916.854 220.954 916.412 220.439C915.988 219.945 915.777 218.968 915.777 217.51C915.777 216.143 916.086 215.192 916.705 214.658C917.369 214.085 918.593 213.799 920.376 213.799C920.995 213.799 921.626 213.831 922.271 213.896C922.994 213.968 923.707 214.082 924.41 214.238L924.117 216.758C922.632 216.504 921.399 216.377 920.416 216.377C919.745 216.377 919.302 216.458 919.087 216.621C918.879 216.777 918.775 217.103 918.775 217.598C918.775 218.229 918.873 218.626 919.068 218.789C919.25 218.939 919.872 219.141 920.933 219.395C922.652 219.805 923.733 220.28 924.175 220.82C924.403 221.107 924.553 221.478 924.625 221.934C924.683 222.279 924.712 222.826 924.712 223.574ZM932.33 216.65V227.314H929.332V216.65H925.748V213.994H935.904V216.65H932.33ZM937.457 227.314V213.994H945.835V216.65H940.455V219.092H945.416V221.758H940.455V224.658H945.835V227.314H937.457ZM958.023 219.512C958.023 222.018 956.49 223.271 953.423 223.271H951.138V227.314H948.14V213.994H953.58C955.162 213.994 956.307 214.313 957.017 214.951C957.688 215.55 958.023 216.491 958.023 217.773V219.512ZM955.025 218.057C955.025 217.119 954.491 216.65 953.423 216.65H951.138V220.674H953.423C954.491 220.674 955.025 220.189 955.025 219.219V218.057Z" fill="white"/>
<path d="M934.211 249.853C934.211 251.767 933.664 253.236 932.57 254.262C931.283 255.447 929.255 256.039 926.486 256.039C923.706 256.039 921.678 255.447 920.402 254.262C919.297 253.236 918.745 251.767 918.745 249.853V238.932C918.745 237.018 919.297 235.548 920.402 234.523C921.678 233.338 923.706 232.746 926.486 232.746C929.255 232.746 931.283 233.338 932.57 234.523C933.664 235.548 934.211 237.018 934.211 238.932V249.853ZM923.786 249.152C923.786 250.804 924.686 251.63 926.486 251.63C928.275 251.63 929.169 250.804 929.169 249.152V239.633C929.169 237.981 928.275 237.155 926.486 237.155C924.686 237.155 923.786 237.981 923.786 239.633V249.152ZM946.943 248.588C946.943 247.79 946.783 247.261 946.464 246.999C946.123 246.714 945.399 246.543 944.294 246.486C942.22 246.406 940.363 246.349 938.723 246.315V233.087H951.506V237.462H943.764V242.23L946.909 242.367C948.8 242.481 950.15 242.994 950.959 243.905C951.643 244.68 951.984 245.825 951.984 247.34V249.818C951.973 251.96 951.455 253.498 950.429 254.433C949.233 255.504 947.131 256.039 944.123 256.039C943.234 256.039 942.237 255.971 941.132 255.834C939.868 255.674 938.785 255.452 937.885 255.167L938.62 251.117C940.318 251.482 942.135 251.664 944.072 251.664C945.211 251.664 945.992 251.493 946.413 251.151C946.766 250.855 946.943 250.32 946.943 249.545V248.588Z" fill="white"/>
<path d="M143.621 340.338H137.2L135.979 344H132.085L138.702 326.227H142.095L148.748 344H144.854L143.621 340.338ZM138.189 337.372H142.632L140.398 330.719L138.189 337.372ZM150.408 344V326.227H155.877C157.439 326.227 158.835 326.581 160.064 327.289C161.301 327.988 162.265 328.989 162.957 330.292C163.649 331.585 163.995 333.058 163.995 334.71V335.528C163.995 337.18 163.653 338.649 162.969 339.935C162.294 341.221 161.338 342.218 160.101 342.926C158.864 343.634 157.468 343.992 155.914 344H150.408ZM154.07 329.193V341.058H155.84C157.273 341.058 158.367 340.59 159.124 339.654C159.881 338.718 160.267 337.38 160.284 335.638V334.698C160.284 332.892 159.909 331.524 159.161 330.597C158.412 329.661 157.317 329.193 155.877 329.193H154.07ZM172.967 339.593L176.995 326.227H181.072L174.883 344H171.062L164.898 326.227H168.963L172.967 339.593ZM191.863 340.338H185.442L184.222 344H180.328L186.944 326.227H190.337L196.99 344H193.096L191.863 340.338ZM186.431 337.372H190.875L188.641 330.719L186.431 337.372ZM213.104 344H209.441L202.312 332.306V344H198.65V326.227H202.312L209.454 337.945V326.227H213.104V344ZM230.254 338.08C230.116 339.992 229.408 341.498 228.13 342.596C226.861 343.695 225.184 344.244 223.101 344.244C220.822 344.244 219.028 343.479 217.718 341.949C216.416 340.411 215.765 338.303 215.765 335.626V334.54C215.765 332.831 216.066 331.325 216.668 330.023C217.27 328.721 218.129 327.724 219.244 327.032C220.367 326.332 221.669 325.982 223.15 325.982C225.201 325.982 226.853 326.532 228.106 327.63C229.359 328.729 230.083 330.271 230.279 332.257H226.617C226.527 331.109 226.206 330.279 225.652 329.767C225.107 329.246 224.273 328.985 223.15 328.985C221.929 328.985 221.014 329.425 220.403 330.304C219.801 331.174 219.492 332.529 219.476 334.369V335.711C219.476 337.632 219.764 339.036 220.342 339.923C220.928 340.81 221.848 341.253 223.101 341.253C224.232 341.253 225.075 340.997 225.628 340.484C226.189 339.964 226.511 339.162 226.592 338.08H230.254ZM243.353 336.297H236.321V341.058H244.573V344H232.659V326.227H244.549V329.193H236.321V333.429H243.353V336.297ZM262.981 340.338H256.561L255.34 344H251.446L258.062 326.227H261.456L268.108 344H264.214L262.981 340.338ZM257.549 337.372H261.993L259.759 330.719L257.549 337.372ZM284.222 344H280.56L273.431 332.306V344H269.769V326.227H273.431L280.572 337.945V326.227H284.222V344ZM287.42 344V326.227H292.889C294.451 326.227 295.847 326.581 297.076 327.289C298.313 327.988 299.277 328.989 299.969 330.292C300.66 331.585 301.006 333.058 301.006 334.71V335.528C301.006 337.18 300.665 338.649 299.981 339.935C299.306 341.221 298.349 342.218 297.112 342.926C295.875 343.634 294.48 343.992 292.925 344H287.42ZM291.082 329.193V341.058H292.852C294.284 341.058 295.379 340.59 296.136 339.654C296.893 338.718 297.279 337.38 297.295 335.638V334.698C297.295 332.892 296.921 331.524 296.172 330.597C295.424 329.661 294.329 329.193 292.889 329.193H291.082ZM146.966 358.193H141.521V373H137.859V358.193H132.488V355.227H146.966V358.193ZM155.645 366.494H152.728V373H149.065V355.227H155.669C157.769 355.227 159.389 355.694 160.528 356.63C161.667 357.566 162.237 358.889 162.237 360.598C162.237 361.81 161.972 362.823 161.443 363.637C160.923 364.443 160.129 365.086 159.063 365.566L162.908 372.829V373H158.978L155.645 366.494ZM152.728 363.527H155.682C156.601 363.527 157.313 363.295 157.818 362.832C158.322 362.36 158.575 361.713 158.575 360.891C158.575 360.052 158.335 359.393 157.854 358.913C157.382 358.433 156.654 358.193 155.669 358.193H152.728V363.527ZM175.066 369.338H168.646L167.425 373H163.531L170.147 355.227H173.541L180.193 373H176.299L175.066 369.338ZM169.634 366.372H174.078L171.844 359.719L169.634 366.372ZM196.307 373H192.645L185.516 361.306V373H181.854V355.227H185.516L192.657 366.945V355.227H196.307V373ZM208.721 368.337C208.721 367.645 208.477 367.116 207.989 366.75C207.5 366.376 206.622 365.985 205.352 365.578C204.083 365.163 203.077 364.756 202.337 364.357C200.319 363.267 199.31 361.798 199.31 359.951C199.31 358.99 199.578 358.136 200.115 357.387C200.66 356.63 201.438 356.04 202.447 355.617C203.464 355.194 204.603 354.982 205.865 354.982C207.134 354.982 208.265 355.214 209.258 355.678C210.251 356.134 211.02 356.781 211.565 357.619C212.119 358.457 212.396 359.41 212.396 360.476H208.733C208.733 359.662 208.477 359.031 207.964 358.583C207.452 358.128 206.731 357.9 205.804 357.9C204.909 357.9 204.213 358.091 203.716 358.474C203.22 358.848 202.972 359.344 202.972 359.963C202.972 360.541 203.261 361.025 203.838 361.416C204.424 361.806 205.283 362.172 206.414 362.514C208.497 363.141 210.015 363.918 210.967 364.846C211.919 365.773 212.396 366.929 212.396 368.312C212.396 369.851 211.814 371.059 210.65 371.938C209.486 372.809 207.92 373.244 205.95 373.244C204.583 373.244 203.338 372.996 202.215 372.5C201.092 371.995 200.233 371.307 199.639 370.437C199.053 369.566 198.76 368.557 198.76 367.409H202.435C202.435 369.37 203.606 370.351 205.95 370.351C206.821 370.351 207.5 370.176 207.989 369.826C208.477 369.468 208.721 368.972 208.721 368.337ZM218.548 366.738V373H214.886V355.227H221.819C223.154 355.227 224.326 355.471 225.335 355.959C226.352 356.447 227.133 357.143 227.679 358.046C228.224 358.942 228.497 359.963 228.497 361.11C228.497 362.852 227.898 364.227 226.702 365.236C225.514 366.237 223.866 366.738 221.758 366.738H218.548ZM218.548 363.771H221.819C222.788 363.771 223.524 363.544 224.029 363.088C224.542 362.632 224.798 361.981 224.798 361.135C224.798 360.264 224.542 359.56 224.029 359.023C223.516 358.486 222.808 358.209 221.905 358.193H218.548V363.771ZM238.885 369.338H232.464L231.243 373H227.349L233.965 355.227H237.359L244.012 373H240.118L238.885 369.338ZM233.453 366.372H237.896L235.662 359.719L233.453 366.372ZM252.251 366.494H249.334V373H245.672V355.227H252.276C254.375 355.227 255.995 355.694 257.134 356.63C258.274 357.566 258.843 358.889 258.843 360.598C258.843 361.81 258.579 362.823 258.05 363.637C257.529 364.443 256.736 365.086 255.669 365.566L259.515 372.829V373H255.584L252.251 366.494ZM249.334 363.527H252.288C253.208 363.527 253.92 363.295 254.424 362.832C254.929 362.36 255.181 361.713 255.181 360.891C255.181 360.052 254.941 359.393 254.461 358.913C253.989 358.433 253.261 358.193 252.276 358.193H249.334V363.527ZM272.332 365.297H265.301V370.058H273.553V373H261.639V355.227H273.528V358.193H265.301V362.429H272.332V365.297ZM290.154 373H286.492L279.363 361.306V373H275.701V355.227H279.363L286.504 366.945V355.227H290.154V373ZM306.365 358.193H300.921V373H297.259V358.193H291.888V355.227H306.365V358.193ZM137.249 395.738V402H133.587V384.227H140.521C141.855 384.227 143.027 384.471 144.036 384.959C145.053 385.447 145.835 386.143 146.38 387.046C146.925 387.942 147.198 388.963 147.198 390.11C147.198 391.852 146.6 393.227 145.403 394.236C144.215 395.237 142.567 395.738 140.459 395.738H137.249ZM137.249 392.771H140.521C141.489 392.771 142.225 392.544 142.73 392.088C143.243 391.632 143.499 390.981 143.499 390.135C143.499 389.264 143.243 388.56 142.73 388.023C142.217 387.486 141.509 387.209 140.606 387.193H137.249V392.771ZM153.387 399.058H161.163V402H149.725V384.227H153.387V399.058ZM173.553 398.338H167.132L165.911 402H162.017L168.633 384.227H172.027L178.68 402H174.786L173.553 398.338ZM168.121 395.372H172.564L170.33 388.719L168.121 395.372ZM192.254 387.193H186.81V402H183.147V387.193H177.776V384.227H192.254V387.193ZM205.047 394.737H198.016V402H194.354V384.227H205.926V387.193H198.016V391.783H205.047V394.737ZM222.649 393.516C222.649 395.266 222.34 396.8 221.722 398.118C221.103 399.437 220.216 400.454 219.061 401.17C217.913 401.886 216.595 402.244 215.105 402.244C213.632 402.244 212.318 401.89 211.163 401.182C210.007 400.474 209.112 399.465 208.477 398.155C207.842 396.836 207.521 395.323 207.513 393.614V392.735C207.513 390.985 207.826 389.447 208.453 388.121C209.087 386.786 209.979 385.765 211.126 385.057C212.282 384.34 213.6 383.982 215.081 383.982C216.562 383.982 217.876 384.34 219.024 385.057C220.18 385.765 221.071 386.786 221.697 388.121C222.332 389.447 222.649 390.981 222.649 392.723V393.516ZM218.938 392.71C218.938 390.847 218.605 389.431 217.938 388.462C217.27 387.494 216.318 387.01 215.081 387.01C213.852 387.01 212.904 387.49 212.237 388.45C211.569 389.402 211.232 390.802 211.224 392.649V393.516C211.224 395.331 211.557 396.739 212.225 397.74C212.892 398.741 213.852 399.241 215.105 399.241C216.334 399.241 217.278 398.761 217.938 397.801C218.597 396.832 218.93 395.424 218.938 393.577V392.71ZM231.89 395.494H228.973V402H225.311V384.227H231.915C234.014 384.227 235.634 384.694 236.773 385.63C237.912 386.566 238.482 387.889 238.482 389.598C238.482 390.81 238.217 391.823 237.688 392.637C237.168 393.443 236.374 394.086 235.308 394.566L239.153 401.829V402H235.223L231.89 395.494ZM228.973 392.527H231.927C232.846 392.527 233.558 392.295 234.063 391.832C234.568 391.36 234.82 390.713 234.82 389.891C234.82 389.052 234.58 388.393 234.1 387.913C233.628 387.433 232.899 387.193 231.915 387.193H228.973V392.527ZM246.062 384.227L250.628 397.117L255.169 384.227H259.979V402H256.304V397.142L256.67 388.755L251.873 402H249.358L244.573 388.768L244.939 397.142V402H241.277V384.227H246.062Z" fill="#DF0045"/>
<path d="M399.28 640.737H392.249V648H388.587V630.227H400.159V633.193H392.249V637.783H399.28V640.737ZM406.177 648H402.515V630.227H406.177V648ZM416.163 636.354L419.495 630.227H423.707L418.531 639.04L423.841 648H419.581L416.163 641.774L412.745 648H408.484L413.794 639.04L408.619 630.227H412.83L416.163 636.354ZM436.39 640.297H429.358V645.058H437.61V648H425.696V630.227H437.586V633.193H429.358V637.429H436.39V640.297ZM439.759 648V630.227H445.228C446.79 630.227 448.186 630.581 449.415 631.289C450.652 631.988 451.616 632.989 452.308 634.292C452.999 635.585 453.345 637.058 453.345 638.71V639.528C453.345 641.18 453.003 642.649 452.32 643.935C451.644 645.221 450.688 646.218 449.451 646.926C448.214 647.634 446.819 647.992 445.264 648H439.759ZM443.421 633.193V645.058H445.191C446.623 645.058 447.718 644.59 448.475 643.654C449.231 642.718 449.618 641.38 449.634 639.638V638.698C449.634 636.892 449.26 635.524 448.511 634.597C447.763 633.661 446.668 633.193 445.228 633.193H443.421ZM392.481 677H388.819V659.227H392.481V677ZM410.34 677H406.678L399.549 665.306V677H395.887V659.227H399.549L406.69 670.945V659.227H410.34V677ZM427.491 671.08C427.352 672.992 426.644 674.498 425.367 675.596C424.097 676.695 422.421 677.244 420.337 677.244C418.059 677.244 416.264 676.479 414.954 674.949C413.652 673.411 413.001 671.303 413.001 668.626V667.54C413.001 665.831 413.302 664.325 413.904 663.023C414.507 661.721 415.365 660.724 416.48 660.032C417.603 659.332 418.905 658.982 420.386 658.982C422.437 658.982 424.089 659.532 425.342 660.63C426.596 661.729 427.32 663.271 427.515 665.257H423.853C423.764 664.109 423.442 663.279 422.889 662.767C422.343 662.246 421.509 661.985 420.386 661.985C419.166 661.985 418.25 662.425 417.64 663.304C417.037 664.174 416.728 665.529 416.712 667.369V668.711C416.712 670.632 417.001 672.036 417.579 672.923C418.165 673.81 419.084 674.253 420.337 674.253C421.469 674.253 422.311 673.997 422.864 673.484C423.426 672.964 423.747 672.162 423.829 671.08H427.491ZM444.495 668.516C444.495 670.266 444.186 671.8 443.567 673.118C442.949 674.437 442.062 675.454 440.906 676.17C439.759 676.886 438.44 677.244 436.951 677.244C435.478 677.244 434.164 676.89 433.008 676.182C431.853 675.474 430.958 674.465 430.323 673.155C429.688 671.836 429.367 670.323 429.358 668.614V667.735C429.358 665.985 429.672 664.447 430.298 663.121C430.933 661.786 431.824 660.765 432.972 660.057C434.127 659.34 435.446 658.982 436.927 658.982C438.408 658.982 439.722 659.34 440.87 660.057C442.025 660.765 442.916 661.786 443.543 663.121C444.178 664.447 444.495 665.981 444.495 667.723V668.516ZM440.784 667.71C440.784 665.847 440.451 664.431 439.783 663.462C439.116 662.494 438.164 662.01 436.927 662.01C435.698 662.01 434.75 662.49 434.083 663.45C433.415 664.402 433.077 665.802 433.069 667.649V668.516C433.069 670.331 433.403 671.739 434.07 672.74C434.738 673.741 435.698 674.241 436.951 674.241C438.18 674.241 439.124 673.761 439.783 672.801C440.442 671.832 440.776 670.424 440.784 668.577V667.71ZM451.941 659.227L456.507 672.117L461.048 659.227H465.857V677H462.183V672.142L462.549 663.755L457.752 677H455.237L450.452 663.768L450.818 672.142V677H447.156V659.227H451.941ZM479.749 669.297H472.718V674.058H480.97V677H469.056V659.227H480.945V662.193H472.718V666.429H479.749V669.297ZM395.167 699.494H392.249V706H388.587V688.227H395.191C397.291 688.227 398.91 688.694 400.049 689.63C401.189 690.566 401.758 691.889 401.758 693.598C401.758 694.81 401.494 695.823 400.965 696.637C400.444 697.443 399.651 698.086 398.584 698.566L402.43 705.829V706H398.499L395.167 699.494ZM392.249 696.527H395.203C396.123 696.527 396.835 696.295 397.339 695.832C397.844 695.36 398.096 694.713 398.096 693.891C398.096 693.052 397.856 692.393 397.376 691.913C396.904 691.433 396.176 691.193 395.191 691.193H392.249V696.527ZM414.588 702.338H408.167L406.946 706H403.052L409.668 688.227H413.062L419.715 706H415.821L414.588 702.338ZM409.156 699.372H413.599L411.365 692.719L409.156 699.372ZM433.289 691.193H427.845V706H424.183V691.193H418.812V688.227H433.289V691.193ZM446.082 698.297H439.051V703.058H447.303V706H435.389V688.227H447.278V691.193H439.051V695.429H446.082V698.297ZM463.55 698.896C462.631 699.799 461.556 700.25 460.328 700.25C458.757 700.25 457.5 699.713 456.556 698.639C455.612 697.557 455.14 696.1 455.14 694.269C455.14 693.105 455.392 692.039 455.896 691.071C456.409 690.094 457.121 689.337 458.033 688.8C458.944 688.255 459.97 687.982 461.109 687.982C462.281 687.982 463.322 688.275 464.234 688.861C465.145 689.447 465.853 690.29 466.358 691.388C466.862 692.487 467.119 693.744 467.127 695.16V696.466C467.127 699.429 466.39 701.756 464.917 703.449C463.444 705.141 461.357 706.045 458.655 706.159L457.789 706.171V703.229L458.57 703.217C461.638 703.078 463.298 701.638 463.55 698.896ZM461.194 697.553C461.764 697.553 462.252 697.406 462.659 697.113C463.074 696.82 463.388 696.466 463.599 696.051V694.599C463.599 693.402 463.371 692.475 462.916 691.815C462.46 691.156 461.849 690.827 461.084 690.827C460.376 690.827 459.795 691.152 459.339 691.803C458.883 692.446 458.655 693.256 458.655 694.232C458.655 695.201 458.875 695.998 459.314 696.625C459.762 697.243 460.389 697.553 461.194 697.553ZM470.179 697.26L471.204 688.227H481.165V691.168H474.097L473.658 694.989C474.496 694.542 475.387 694.318 476.331 694.318C478.024 694.318 479.35 694.843 480.311 695.893C481.271 696.942 481.751 698.411 481.751 700.299C481.751 701.447 481.507 702.476 481.019 703.388C480.538 704.291 479.847 704.995 478.943 705.5C478.04 705.996 476.974 706.244 475.745 706.244C474.671 706.244 473.674 706.028 472.754 705.597C471.835 705.158 471.106 704.543 470.569 703.754C470.04 702.965 469.76 702.065 469.727 701.056H473.218C473.292 701.797 473.548 702.375 473.987 702.79C474.435 703.196 475.017 703.4 475.733 703.4C476.53 703.4 477.145 703.115 477.576 702.545C478.007 701.968 478.223 701.154 478.223 700.104C478.223 699.095 477.975 698.322 477.479 697.785C476.982 697.248 476.278 696.979 475.367 696.979C474.528 696.979 473.849 697.199 473.328 697.638L472.986 697.956L470.179 697.26ZM483.96 691.645C483.96 690.554 484.314 689.671 485.022 688.996C485.73 688.312 486.658 687.97 487.806 687.97C488.969 687.97 489.905 688.308 490.613 688.983C491.321 689.651 491.675 690.558 491.675 691.706V692.584C491.675 693.683 491.321 694.566 490.613 695.233C489.905 695.901 488.978 696.234 487.83 696.234C486.674 696.234 485.739 695.901 485.022 695.233C484.314 694.558 483.96 693.651 483.96 692.511V691.645ZM486.304 692.584C486.304 693.073 486.443 693.467 486.719 693.769C487.004 694.062 487.374 694.208 487.83 694.208C488.286 694.208 488.648 694.057 488.917 693.756C489.185 693.455 489.319 693.052 489.319 692.548V691.645C489.319 691.156 489.185 690.762 488.917 690.46C488.648 690.159 488.278 690.009 487.806 690.009C487.358 690.009 486.996 690.159 486.719 690.46C486.443 690.753 486.304 691.164 486.304 691.693V692.584ZM492.457 701.642C492.457 700.543 492.815 699.66 493.531 698.993C494.247 698.318 495.175 697.98 496.314 697.98C497.47 697.98 498.401 698.314 499.109 698.981C499.826 699.64 500.184 700.552 500.184 701.715V702.594C500.184 703.685 499.834 704.568 499.134 705.243C498.434 705.91 497.502 706.244 496.338 706.244C495.167 706.244 494.227 705.906 493.519 705.231C492.811 704.556 492.457 703.66 492.457 702.545V701.642ZM494.8 702.594C494.8 703.042 494.947 703.424 495.24 703.742C495.533 704.059 495.899 704.218 496.338 704.218C497.331 704.218 497.828 703.668 497.828 702.57V701.642C497.828 701.154 497.689 700.763 497.413 700.47C497.136 700.169 496.77 700.019 496.314 700.019C495.858 700.019 495.492 700.169 495.215 700.47C494.939 700.763 494.8 701.166 494.8 701.679V702.594ZM488.526 704.669L486.805 703.742L495.484 689.85L497.205 690.778L488.526 704.669Z" fill="#DF0045"/>
<path d="M574.039 328.227V339.933C574.039 341.878 573.429 343.416 572.208 344.547C570.995 345.679 569.335 346.244 567.228 346.244C565.152 346.244 563.504 345.695 562.284 344.596C561.063 343.498 560.44 341.988 560.416 340.067V328.227H564.078V339.958C564.078 341.121 564.355 341.972 564.908 342.509C565.47 343.038 566.243 343.302 567.228 343.302C569.286 343.302 570.332 342.22 570.365 340.055V328.227H574.039ZM591.495 346H587.833L580.704 334.306V346H577.042V328.227H580.704L587.845 339.945V328.227H591.495V346ZM598.355 343.058H606.131V346H594.693V328.227H598.355V343.058ZM612.137 346H608.475V328.227H612.137V346ZM620.328 328.227L624.894 341.117L629.435 328.227H634.244V346H630.57V341.142L630.936 332.755L626.139 346H623.624L618.839 332.768L619.205 341.142V346H615.543V328.227H620.328ZM641.336 346H637.674V328.227H641.336V346ZM657.755 331.193H652.311V346H648.648V331.193H643.277V328.227H657.755V331.193ZM670.548 338.297H663.517V343.058H671.769V346H659.854V328.227H671.744V331.193H663.517V335.429H670.548V338.297ZM673.917 346V328.227H679.386C680.948 328.227 682.344 328.581 683.573 329.289C684.81 329.988 685.774 330.989 686.466 332.292C687.158 333.585 687.503 335.058 687.503 336.71V337.528C687.503 339.18 687.162 340.649 686.478 341.935C685.803 343.221 684.846 344.218 683.609 344.926C682.372 345.634 680.977 345.992 679.422 346H673.917ZM677.579 331.193V343.058H679.349C680.781 343.058 681.876 342.59 682.633 341.654C683.39 340.718 683.776 339.38 683.792 337.638V336.698C683.792 334.892 683.418 333.524 682.669 332.597C681.921 331.661 680.826 331.193 679.386 331.193H677.579ZM573.966 360.193H568.521V375H564.859V360.193H559.488V357.227H573.966V360.193ZM582.645 368.494H579.728V375H576.065V357.227H582.669C584.769 357.227 586.389 357.694 587.528 358.63C588.667 359.566 589.237 360.889 589.237 362.598C589.237 363.81 588.972 364.823 588.443 365.637C587.923 366.443 587.129 367.086 586.063 367.566L589.908 374.829V375H585.978L582.645 368.494ZM579.728 365.527H582.682C583.601 365.527 584.313 365.295 584.818 364.832C585.322 364.36 585.575 363.713 585.575 362.891C585.575 362.052 585.335 361.393 584.854 360.913C584.382 360.433 583.654 360.193 582.669 360.193H579.728V365.527ZM602.066 371.338H595.646L594.425 375H590.531L597.147 357.227H600.541L607.193 375H603.299L602.066 371.338ZM596.634 368.372H601.078L598.844 361.719L596.634 368.372ZM623.307 375H619.645L612.516 363.306V375H608.854V357.227H612.516L619.657 368.945V357.227H623.307V375ZM635.721 370.337C635.721 369.645 635.477 369.116 634.989 368.75C634.5 368.376 633.622 367.985 632.352 367.578C631.083 367.163 630.077 366.756 629.337 366.357C627.319 365.267 626.31 363.798 626.31 361.951C626.31 360.99 626.578 360.136 627.115 359.387C627.66 358.63 628.438 358.04 629.447 357.617C630.464 357.194 631.603 356.982 632.865 356.982C634.134 356.982 635.265 357.214 636.258 357.678C637.251 358.134 638.02 358.781 638.565 359.619C639.119 360.457 639.396 361.41 639.396 362.476H635.733C635.733 361.662 635.477 361.031 634.964 360.583C634.452 360.128 633.731 359.9 632.804 359.9C631.909 359.9 631.213 360.091 630.716 360.474C630.22 360.848 629.972 361.344 629.972 361.963C629.972 362.541 630.261 363.025 630.838 363.416C631.424 363.806 632.283 364.172 633.414 364.514C635.497 365.141 637.015 365.918 637.967 366.846C638.919 367.773 639.396 368.929 639.396 370.312C639.396 371.851 638.814 373.059 637.65 373.938C636.486 374.809 634.92 375.244 632.95 375.244C631.583 375.244 630.338 374.996 629.215 374.5C628.092 373.995 627.233 373.307 626.639 372.437C626.053 371.566 625.76 370.557 625.76 369.409H629.435C629.435 371.37 630.606 372.351 632.95 372.351C633.821 372.351 634.5 372.176 634.989 371.826C635.477 371.468 635.721 370.972 635.721 370.337ZM651.92 371.338H645.499L644.278 375H640.384L647 357.227H650.394L657.047 375H653.153L651.92 371.338ZM646.488 368.372H650.931L648.697 361.719L646.488 368.372ZM672.391 369.08C672.253 370.992 671.545 372.498 670.267 373.596C668.998 374.695 667.321 375.244 665.238 375.244C662.959 375.244 661.165 374.479 659.854 372.949C658.552 371.411 657.901 369.303 657.901 366.626V365.54C657.901 363.831 658.202 362.325 658.805 361.023C659.407 359.721 660.265 358.724 661.38 358.032C662.503 357.332 663.806 356.982 665.287 356.982C667.337 356.982 668.989 357.532 670.243 358.63C671.496 359.729 672.22 361.271 672.416 363.257H668.753C668.664 362.109 668.342 361.279 667.789 360.767C667.244 360.246 666.41 359.985 665.287 359.985C664.066 359.985 663.15 360.425 662.54 361.304C661.938 362.174 661.629 363.529 661.612 365.369V366.711C661.612 368.632 661.901 370.036 662.479 370.923C663.065 371.81 663.985 372.253 665.238 372.253C666.369 372.253 667.211 371.997 667.765 371.484C668.326 370.964 668.648 370.162 668.729 369.08H672.391ZM687.809 360.193H682.364V375H678.702V360.193H673.331V357.227H687.809V360.193ZM693.802 375H690.14V357.227H693.802V375ZM711.808 366.516C711.808 368.266 711.498 369.8 710.88 371.118C710.261 372.437 709.374 373.454 708.219 374.17C707.071 374.886 705.753 375.244 704.264 375.244C702.791 375.244 701.476 374.89 700.321 374.182C699.165 373.474 698.27 372.465 697.635 371.155C697 369.836 696.679 368.323 696.671 366.614V365.735C696.671 363.985 696.984 362.447 697.611 361.121C698.246 359.786 699.137 358.765 700.284 358.057C701.44 357.34 702.758 356.982 704.239 356.982C705.72 356.982 707.035 357.34 708.182 358.057C709.338 358.765 710.229 359.786 710.855 361.121C711.49 362.447 711.808 363.981 711.808 365.723V366.516ZM708.097 365.71C708.097 363.847 707.763 362.431 707.096 361.462C706.428 360.494 705.476 360.01 704.239 360.01C703.01 360.01 702.062 360.49 701.395 361.45C700.728 362.402 700.39 363.802 700.382 365.649V366.516C700.382 368.331 700.715 369.739 701.383 370.74C702.05 371.741 703.01 372.241 704.264 372.241C705.493 372.241 706.437 371.761 707.096 370.801C707.755 369.832 708.089 368.424 708.097 366.577V365.71ZM728.922 375H725.26L718.131 363.306V375H714.469V357.227H718.131L725.272 368.945V357.227H728.922V375Z" fill="#DF0045"/>
<path d="M802.039 636.227V647.933C802.039 649.878 801.429 651.416 800.208 652.547C798.995 653.679 797.335 654.244 795.228 654.244C793.152 654.244 791.504 653.695 790.284 652.596C789.063 651.498 788.44 649.988 788.416 648.067V636.227H792.078V647.958C792.078 649.121 792.355 649.972 792.908 650.509C793.47 651.038 794.243 651.302 795.228 651.302C797.286 651.302 798.332 650.22 798.365 648.055V636.227H802.039ZM819.495 654H815.833L808.704 642.306V654H805.042V636.227H808.704L815.845 647.945V636.227H819.495V654ZM826.355 651.058H834.131V654H822.693V636.227H826.355V651.058ZM840.137 654H836.475V636.227H840.137V654ZM848.328 636.227L852.894 649.117L857.435 636.227H862.244V654H858.57V649.142L858.936 640.755L854.139 654H851.624L846.839 640.768L847.205 649.142V654H843.543V636.227H848.328ZM869.336 654H865.674V636.227H869.336V654ZM885.755 639.193H880.311V654H876.648V639.193H871.277V636.227H885.755V639.193ZM898.548 646.297H891.517V651.058H899.769V654H887.854V636.227H899.744V639.193H891.517V643.429H898.548V646.297ZM901.917 654V636.227H907.386C908.948 636.227 910.344 636.581 911.573 637.289C912.81 637.988 913.774 638.989 914.466 640.292C915.158 641.585 915.503 643.058 915.503 644.71V645.528C915.503 647.18 915.162 648.649 914.478 649.935C913.803 651.221 912.846 652.218 911.609 652.926C910.372 653.634 908.977 653.992 907.422 654H901.917ZM905.579 639.193V651.058H907.349C908.781 651.058 909.876 650.59 910.633 649.654C911.39 648.718 911.776 647.38 911.792 645.638V644.698C911.792 642.892 911.418 641.524 910.669 640.597C909.921 639.661 908.826 639.193 907.386 639.193H905.579ZM792.481 683H788.819V665.227H792.481V683ZM810.34 683H806.678L799.549 671.306V683H795.887V665.227H799.549L806.69 676.945V665.227H810.34V683ZM827.491 677.08C827.352 678.992 826.644 680.498 825.367 681.596C824.097 682.695 822.421 683.244 820.337 683.244C818.059 683.244 816.264 682.479 814.954 680.949C813.652 679.411 813.001 677.303 813.001 674.626V673.54C813.001 671.831 813.302 670.325 813.904 669.023C814.507 667.721 815.365 666.724 816.48 666.032C817.603 665.332 818.905 664.982 820.386 664.982C822.437 664.982 824.089 665.532 825.342 666.63C826.596 667.729 827.32 669.271 827.515 671.257H823.853C823.764 670.109 823.442 669.279 822.889 668.767C822.343 668.246 821.509 667.985 820.386 667.985C819.166 667.985 818.25 668.425 817.64 669.304C817.037 670.174 816.728 671.529 816.712 673.369V674.711C816.712 676.632 817.001 678.036 817.579 678.923C818.165 679.81 819.084 680.253 820.337 680.253C821.469 680.253 822.311 679.997 822.864 679.484C823.426 678.964 823.747 678.162 823.829 677.08H827.491ZM844.495 674.516C844.495 676.266 844.186 677.8 843.567 679.118C842.949 680.437 842.062 681.454 840.906 682.17C839.759 682.886 838.44 683.244 836.951 683.244C835.478 683.244 834.164 682.89 833.008 682.182C831.853 681.474 830.958 680.465 830.323 679.155C829.688 677.836 829.367 676.323 829.358 674.614V673.735C829.358 671.985 829.672 670.447 830.298 669.121C830.933 667.786 831.824 666.765 832.972 666.057C834.127 665.34 835.446 664.982 836.927 664.982C838.408 664.982 839.722 665.34 840.87 666.057C842.025 666.765 842.916 667.786 843.543 669.121C844.178 670.447 844.495 671.981 844.495 673.723V674.516ZM840.784 673.71C840.784 671.847 840.451 670.431 839.783 669.462C839.116 668.494 838.164 668.01 836.927 668.01C835.698 668.01 834.75 668.49 834.083 669.45C833.415 670.402 833.077 671.802 833.069 673.649V674.516C833.069 676.331 833.403 677.739 834.07 678.74C834.738 679.741 835.698 680.241 836.951 680.241C838.18 680.241 839.124 679.761 839.783 678.801C840.442 677.832 840.776 676.424 840.784 674.577V673.71ZM851.941 665.227L856.507 678.117L861.048 665.227H865.857V683H862.183V678.142L862.549 669.755L857.752 683H855.237L850.452 669.768L850.818 678.142V683H847.156V665.227H851.941ZM879.749 675.297H872.718V680.058H880.97V683H869.056V665.227H880.945V668.193H872.718V672.429H879.749V675.297Z" fill="#DF0045"/>
<path d="M1011.52 375.113C1011.52 376.862 1011.21 378.396 1010.59 379.715C1009.97 381.033 1009.09 382.05 1007.93 382.767C1006.78 383.483 1005.47 383.841 1003.98 383.841C1002.5 383.841 1001.19 383.487 1000.03 382.779C998.879 382.071 997.983 381.062 997.349 379.751C996.714 378.433 996.392 376.919 996.384 375.21V374.332C996.384 372.582 996.698 371.044 997.324 369.717C997.959 368.383 998.85 367.361 999.998 366.653C1001.15 365.937 1002.47 365.579 1003.95 365.579C1005.43 365.579 1006.75 365.937 1007.9 366.653C1009.05 367.361 1009.94 368.383 1010.57 369.717C1011.2 371.044 1011.52 372.578 1011.52 374.319V375.113ZM1007.81 374.307C1007.81 372.444 1007.48 371.028 1006.81 370.059C1006.14 369.091 1005.19 368.606 1003.95 368.606C1002.72 368.606 1001.78 369.087 1001.11 370.047C1000.44 370.999 1000.1 372.399 1000.1 374.246V375.113C1000.1 376.928 1000.43 378.335 1001.1 379.336C1001.76 380.337 1002.72 380.838 1003.98 380.838C1005.21 380.838 1006.15 380.358 1006.81 379.397C1007.47 378.429 1007.8 377.021 1007.81 375.174V374.307ZM1017.84 377.334V383.597H1014.18V365.823H1021.12C1022.45 365.823 1023.62 366.067 1024.63 366.556C1025.65 367.044 1026.43 367.74 1026.98 368.643C1027.52 369.538 1027.79 370.56 1027.79 371.707C1027.79 373.449 1027.19 374.824 1026 375.833C1024.81 376.834 1023.16 377.334 1021.05 377.334H1017.84ZM1017.84 374.368H1021.12C1022.08 374.368 1022.82 374.14 1023.33 373.685C1023.84 373.229 1024.09 372.578 1024.09 371.731C1024.09 370.861 1023.84 370.157 1023.33 369.62C1022.81 369.083 1022.1 368.806 1021.2 368.79H1017.84V374.368ZM1041.01 375.894H1033.98V380.655H1042.23V383.597H1030.32V365.823H1042.21V368.79H1033.98V373.025H1041.01V375.894ZM1050.96 377.09H1048.04V383.597H1044.38V365.823H1050.99C1053.09 365.823 1054.71 366.291 1055.84 367.227C1056.98 368.163 1057.55 369.485 1057.55 371.194C1057.55 372.407 1057.29 373.42 1056.76 374.234C1056.24 375.04 1055.45 375.682 1054.38 376.163L1058.23 383.426V383.597H1054.29L1050.96 377.09ZM1048.04 374.124H1051C1051.92 374.124 1052.63 373.892 1053.13 373.428C1053.64 372.956 1053.89 372.309 1053.89 371.487C1053.89 370.649 1053.65 369.99 1053.17 369.51C1052.7 369.03 1051.97 368.79 1050.99 368.79H1048.04V374.124ZM1070.38 379.935H1063.96L1062.74 383.597H1058.85L1065.46 365.823H1068.86L1075.51 383.597H1071.62L1070.38 379.935ZM1064.95 376.968H1069.39L1067.16 370.315L1064.95 376.968ZM1089.08 368.79H1083.64V383.597H1079.98V368.79H1074.61V365.823H1089.08V368.79ZM1095.08 383.597H1091.42V365.823H1095.08V383.597ZM1113.08 375.113C1113.08 376.862 1112.77 378.396 1112.16 379.715C1111.54 381.033 1110.65 382.05 1109.49 382.767C1108.35 383.483 1107.03 383.841 1105.54 383.841C1104.07 383.841 1102.75 383.487 1101.6 382.779C1100.44 382.071 1099.55 381.062 1098.91 379.751C1098.28 378.433 1097.95 376.919 1097.95 375.21V374.332C1097.95 372.582 1098.26 371.044 1098.89 369.717C1099.52 368.383 1100.41 367.361 1101.56 366.653C1102.72 365.937 1104.03 365.579 1105.52 365.579C1107 365.579 1108.31 365.937 1109.46 366.653C1110.61 367.361 1111.5 368.383 1112.13 369.717C1112.77 371.044 1113.08 372.578 1113.08 374.319V375.113ZM1109.37 374.307C1109.37 372.444 1109.04 371.028 1108.37 370.059C1107.7 369.091 1106.75 368.606 1105.52 368.606C1104.29 368.606 1103.34 369.087 1102.67 370.047C1102 370.999 1101.67 372.399 1101.66 374.246V375.113C1101.66 376.928 1101.99 378.335 1102.66 379.336C1103.33 380.337 1104.29 380.838 1105.54 380.838C1106.77 380.838 1107.71 380.358 1108.37 379.397C1109.03 378.429 1109.36 377.021 1109.37 375.174V374.307ZM1130.2 383.597H1126.54L1119.41 371.902V383.597H1115.74V365.823H1119.41L1126.55 377.542V365.823H1130.2V383.597Z" fill="#DF0045"/>
<path d="M1011.4 351.553H996.785V348.653L1003.68 341.299C1004.63 340.264 1005.33 339.361 1005.78 338.589C1006.24 337.818 1006.47 337.085 1006.47 336.392C1006.47 335.445 1006.23 334.703 1005.75 334.166C1005.27 333.619 1004.59 333.345 1003.7 333.345C1002.74 333.345 1001.98 333.677 1001.43 334.341C1000.88 334.996 1000.61 335.86 1000.61 336.934H996.36C996.36 335.635 996.667 334.449 997.283 333.375C997.908 332.3 998.787 331.46 999.919 330.855C1001.05 330.24 1002.34 329.932 1003.77 329.932C1005.97 329.932 1007.67 330.459 1008.88 331.514C1010.1 332.569 1010.72 334.058 1010.72 335.982C1010.72 337.037 1010.44 338.111 1009.9 339.205C1009.35 340.298 1008.41 341.573 1007.08 343.028L1002.23 348.14H1011.4V351.553ZM1026.54 343.526H1028.95V346.939H1026.54V351.553H1022.3V346.939H1013.56L1013.37 344.273L1022.26 330.225H1026.54V343.526ZM1017.59 343.526H1022.3V335.997L1022.02 336.48L1017.59 343.526ZM1032.75 353.384H1029.6L1037.45 330.225H1040.6L1032.75 353.384ZM1056.96 332.598L1048.71 351.553H1044.25L1052.51 333.653H1041.9V330.225H1056.96V332.598Z" fill="#DF0045"/>
<defs>
<linearGradient id="paint0_linear" x1="-0.00442689" y1="56.0655" x2="451.71" y2="56.0655" gradientUnits="userSpaceOnUse">
<stop stop-color="#3A4A92"/>
<stop offset="1" stop-color="#B962FC"/>
</linearGradient>
</defs>
</svg>
