<svg width="100%" height="100%" viewBox="0 0 682 207" fill="none" xmlns="http://www.w3.org/2000/svg">
<path d="M184.531 8.5625H189.453V28.5039C189.453 31.2253 188.6 33.3867 186.895 34.9883C185.202 36.5898 182.962 37.3906 180.176 37.3906C177.207 37.3906 174.915 36.6419 173.301 35.1445C171.686 33.6471 170.879 31.5638 170.879 28.8945H175.801C175.801 30.4049 176.172 31.5443 176.914 32.3125C177.669 33.0677 178.757 33.4453 180.176 33.4453C181.504 33.4453 182.559 33.0091 183.34 32.1367C184.134 31.2513 184.531 30.0339 184.531 28.4844V8.5625ZM217.812 23.5234C217.812 26.3099 217.331 28.7578 216.367 30.8672C215.404 32.9635 214.023 34.5781 212.227 35.7109C210.443 36.8307 208.385 37.3906 206.055 37.3906C203.75 37.3906 201.693 36.8307 199.883 35.7109C198.086 34.5781 196.693 32.9701 195.703 30.8867C194.727 28.8034 194.232 26.401 194.219 23.6797V22.0781C194.219 19.3047 194.707 16.8568 195.684 14.7344C196.673 12.612 198.06 10.9909 199.844 9.87109C201.641 8.73828 203.698 8.17188 206.016 8.17188C208.333 8.17188 210.384 8.73177 212.168 9.85156C213.965 10.9583 215.352 12.5599 216.328 14.6562C217.305 16.7396 217.799 19.168 217.812 21.9414V23.5234ZM212.871 22.0391C212.871 18.888 212.272 16.4727 211.074 14.793C209.889 13.1133 208.203 12.2734 206.016 12.2734C203.88 12.2734 202.207 13.1133 200.996 14.793C199.798 16.4596 199.186 18.8229 199.16 21.8828V23.5234C199.16 26.6484 199.766 29.0638 200.977 30.7695C202.201 32.4753 203.893 33.3281 206.055 33.3281C208.242 33.3281 209.922 32.4948 211.094 30.8281C212.279 29.1615 212.871 26.7266 212.871 23.5234V22.0391ZM227.949 37H223.027V8.5625H227.949V37ZM256.582 37H251.641L238.965 16.8242V37H234.023V8.5625H238.965L251.68 28.8164V8.5625H256.582V37ZM288.77 24.9492H277.324V37H272.383V8.5625H290.449V12.5469H277.324V21.0039H288.77V24.9492ZM299.59 37H294.668V8.5625H299.59V37ZM328.223 37H323.281L310.605 16.8242V37H305.664V8.5625H310.605L323.32 28.8164V8.5625H328.223V37ZM339.277 37H334.355V8.5625H339.277V37ZM351.758 8.5625L359.961 30.3594L368.145 8.5625H374.531V37H369.609V27.625L370.098 15.0859L361.699 37H358.164L349.785 15.1055L350.273 27.625V37H345.352V8.5625H351.758ZM385.605 37H380.684V8.5625H385.605V37ZM401.816 18.8359L407.793 8.5625H413.496L404.902 22.6641L413.691 37H407.93L401.816 26.5703L395.684 37H389.941L398.75 22.6641L390.137 8.5625H395.84L401.816 18.8359ZM449.863 37H444.922L432.246 16.8242V37H427.305V8.5625H432.246L444.961 28.8164V8.5625H449.863V37ZM478.398 23.5234C478.398 26.3099 477.917 28.7578 476.953 30.8672C475.99 32.9635 474.609 34.5781 472.812 35.7109C471.029 36.8307 468.971 37.3906 466.641 37.3906C464.336 37.3906 462.279 36.8307 460.469 35.7109C458.672 34.5781 457.279 32.9701 456.289 30.8867C455.312 28.8034 454.818 26.401 454.805 23.6797V22.0781C454.805 19.3047 455.293 16.8568 456.27 14.7344C457.259 12.612 458.646 10.9909 460.43 9.87109C462.227 8.73828 464.284 8.17188 466.602 8.17188C468.919 8.17188 470.97 8.73177 472.754 9.85156C474.551 10.9583 475.938 12.5599 476.914 14.6562C477.891 16.7396 478.385 19.168 478.398 21.9414V23.5234ZM473.457 22.0391C473.457 18.888 472.858 16.4727 471.66 14.793C470.475 13.1133 468.789 12.2734 466.602 12.2734C464.466 12.2734 462.793 13.1133 461.582 14.793C460.384 16.4596 459.772 18.8229 459.746 21.8828V23.5234C459.746 26.6484 460.352 29.0638 461.562 30.7695C462.786 32.4753 464.479 33.3281 466.641 33.3281C468.828 33.3281 470.508 32.4948 471.68 30.8281C472.865 29.1615 473.457 26.7266 473.457 23.5234V22.0391ZM505.625 29.9688L510 8.5625H514.902L508.34 37H503.613L498.203 16.2383L492.676 37H487.93L481.367 8.5625H486.27L490.684 29.9297L496.113 8.5625H500.254L505.625 29.9688Z" fill="#FF902A"/>
<path d="M35.1562 86.3203H21.8555V123H14.502V86.3203H1.31836V80.3438H35.1562V86.3203ZM32.666 106.857C32.666 103.752 33.2812 100.959 34.5117 98.4785C35.7422 95.9785 37.4707 94.0645 39.6973 92.7363C41.9238 91.3887 44.4824 90.7148 47.373 90.7148C51.6504 90.7148 55.1172 92.0918 57.7734 94.8457C60.4492 97.5996 61.8945 101.252 62.1094 105.803L62.1387 107.473C62.1387 110.598 61.5332 113.391 60.3223 115.852C59.1309 118.312 57.4121 120.217 55.166 121.564C52.9395 122.912 50.3613 123.586 47.4316 123.586C42.959 123.586 39.375 122.102 36.6797 119.133C34.0039 116.145 32.666 112.17 32.666 107.209V106.857ZM39.7852 107.473C39.7852 110.734 40.459 113.293 41.8066 115.148C43.1543 116.984 45.0293 117.902 47.4316 117.902C49.834 117.902 51.6992 116.965 53.0273 115.09C54.375 113.215 55.0488 110.471 55.0488 106.857C55.0488 103.654 54.3555 101.115 52.9688 99.2402C51.6016 97.3652 49.7363 96.4277 47.373 96.4277C45.0488 96.4277 43.2031 97.3555 41.8359 99.2109C40.4688 101.047 39.7852 103.801 39.7852 107.473ZM97.0605 123.586C92.5488 123.586 88.8867 122.17 86.0742 119.338C83.2812 116.486 81.8848 112.697 81.8848 107.971V107.092C81.8848 103.928 82.4902 101.105 83.7012 98.625C84.9316 96.125 86.6504 94.1816 88.8574 92.7949C91.0645 91.4082 93.5254 90.7148 96.2402 90.7148C100.557 90.7148 103.887 92.0918 106.23 94.8457C108.594 97.5996 109.775 101.496 109.775 106.535V109.406H89.0625C89.2773 112.023 90.1465 114.094 91.6699 115.617C93.2129 117.141 95.1465 117.902 97.4707 117.902C100.732 117.902 103.389 116.584 105.439 113.947L109.277 117.609C108.008 119.504 106.309 120.979 104.18 122.033C102.07 123.068 99.6973 123.586 97.0605 123.586ZM96.2109 96.4277C94.2578 96.4277 92.6758 97.1113 91.4648 98.4785C90.2734 99.8457 89.5117 101.75 89.1797 104.191H102.744V103.664C102.588 101.281 101.953 99.4844 100.84 98.2734C99.7266 97.043 98.1836 96.4277 96.2109 96.4277ZM134.268 123C133.955 122.395 133.682 121.408 133.447 120.041C131.182 122.404 128.408 123.586 125.127 123.586C121.943 123.586 119.346 122.678 117.334 120.861C115.322 119.045 114.316 116.799 114.316 114.123C114.316 110.744 115.566 108.156 118.066 106.359C120.586 104.543 124.18 103.635 128.848 103.635H133.213V101.555C133.213 99.9141 132.754 98.6055 131.836 97.6289C130.918 96.6328 129.521 96.1348 127.646 96.1348C126.025 96.1348 124.697 96.5449 123.662 97.3652C122.627 98.166 122.109 99.1914 122.109 100.441H114.99C114.99 98.7031 115.566 97.082 116.719 95.5781C117.871 94.0547 119.434 92.8633 121.406 92.0039C123.398 91.1445 125.615 90.7148 128.057 90.7148C131.768 90.7148 134.727 91.6523 136.934 93.5273C139.141 95.3828 140.273 98 140.332 101.379V115.676C140.332 118.527 140.732 120.803 141.533 122.502V123H134.268ZM126.445 117.873C127.852 117.873 129.17 117.531 130.4 116.848C131.65 116.164 132.588 115.246 133.213 114.094V108.117H129.375C126.738 108.117 124.756 108.576 123.428 109.494C122.1 110.412 121.436 111.711 121.436 113.391C121.436 114.758 121.885 115.852 122.783 116.672C123.701 117.473 124.922 117.873 126.445 117.873ZM164.385 97.8047C163.447 97.6484 162.48 97.5703 161.484 97.5703C158.223 97.5703 156.025 98.8203 154.893 101.32V123H147.773V91.3008H154.57L154.746 94.8457C156.465 92.0918 158.848 90.7148 161.895 90.7148C162.91 90.7148 163.75 90.8516 164.414 91.125L164.385 97.8047ZM175.488 91.3008L175.693 94.9629C178.037 92.1309 181.113 90.7148 184.922 90.7148C191.523 90.7148 194.883 94.4941 195 102.053V123H187.881V102.463C187.881 100.451 187.441 98.9668 186.562 98.0098C185.703 97.0332 184.287 96.5449 182.314 96.5449C179.443 96.5449 177.305 97.8438 175.898 100.441V123H168.779V91.3008H175.488ZM236.426 119.895C234.336 122.355 231.367 123.586 227.52 123.586C224.082 123.586 221.475 122.58 219.697 120.568C217.939 118.557 217.061 115.646 217.061 111.838V91.3008H224.18V111.75C224.18 115.773 225.85 117.785 229.189 117.785C232.646 117.785 234.98 116.545 236.191 114.064V91.3008H243.311V123H236.602L236.426 119.895ZM257.168 91.3008L257.373 94.9629C259.717 92.1309 262.793 90.7148 266.602 90.7148C273.203 90.7148 276.562 94.4941 276.68 102.053V123H269.561V102.463C269.561 100.451 269.121 98.9668 268.242 98.0098C267.383 97.0332 265.967 96.5449 263.994 96.5449C261.123 96.5449 258.984 97.8438 257.578 100.441V123H250.459V91.3008H257.168ZM291.533 123H284.414V78H291.533V123ZM306.885 123H299.766V91.3008H306.885V123ZM299.326 83.0684C299.326 81.9746 299.668 81.0664 300.352 80.3438C301.055 79.6211 302.051 79.2598 303.34 79.2598C304.629 79.2598 305.625 79.6211 306.328 80.3438C307.031 81.0664 307.383 81.9746 307.383 83.0684C307.383 84.1426 307.031 85.041 306.328 85.7637C305.625 86.4668 304.629 86.8184 303.34 86.8184C302.051 86.8184 301.055 86.4668 300.352 85.7637C299.668 85.041 299.326 84.1426 299.326 83.0684ZM321.357 91.3008L321.562 94.6113C323.789 92.0137 326.836 90.7148 330.703 90.7148C334.941 90.7148 337.842 92.3359 339.404 95.5781C341.709 92.3359 344.951 90.7148 349.131 90.7148C352.627 90.7148 355.225 91.6816 356.924 93.6152C358.643 95.5488 359.521 98.4004 359.561 102.17V123H352.441V102.375C352.441 100.363 352.002 98.8887 351.123 97.9512C350.244 97.0137 348.789 96.5449 346.758 96.5449C345.137 96.5449 343.809 96.9844 342.773 97.8633C341.758 98.7227 341.045 99.8555 340.635 101.262L340.664 123H333.545V102.141C333.447 98.4102 331.543 96.5449 327.832 96.5449C324.98 96.5449 322.959 97.707 321.768 100.031V123H314.648V91.3008H321.357ZM374.443 123H367.324V91.3008H374.443V123ZM366.885 83.0684C366.885 81.9746 367.227 81.0664 367.91 80.3438C368.613 79.6211 369.609 79.2598 370.898 79.2598C372.188 79.2598 373.184 79.6211 373.887 80.3438C374.59 81.0664 374.941 81.9746 374.941 83.0684C374.941 84.1426 374.59 85.041 373.887 85.7637C373.184 86.4668 372.188 86.8184 370.898 86.8184C369.609 86.8184 368.613 86.4668 367.91 85.7637C367.227 85.041 366.885 84.1426 366.885 83.0684ZM391.143 83.5957V91.3008H396.738V96.5742H391.143V114.27C391.143 115.48 391.377 116.359 391.846 116.906C392.334 117.434 393.193 117.697 394.424 117.697C395.244 117.697 396.074 117.6 396.914 117.404V122.912C395.293 123.361 393.73 123.586 392.227 123.586C386.758 123.586 384.023 120.568 384.023 114.533V96.5742H378.809V91.3008H384.023V83.5957H391.143ZM416.162 123.586C411.65 123.586 407.988 122.17 405.176 119.338C402.383 116.486 400.986 112.697 400.986 107.971V107.092C400.986 103.928 401.592 101.105 402.803 98.625C404.033 96.125 405.752 94.1816 407.959 92.7949C410.166 91.4082 412.627 90.7148 415.342 90.7148C419.658 90.7148 422.988 92.0918 425.332 94.8457C427.695 97.5996 428.877 101.496 428.877 106.535V109.406H408.164C408.379 112.023 409.248 114.094 410.771 115.617C412.314 117.141 414.248 117.902 416.572 117.902C419.834 117.902 422.49 116.584 424.541 113.947L428.379 117.609C427.109 119.504 425.41 120.979 423.281 122.033C421.172 123.068 418.799 123.586 416.162 123.586ZM415.312 96.4277C413.359 96.4277 411.777 97.1113 410.566 98.4785C409.375 99.8457 408.613 101.75 408.281 104.191H421.846V103.664C421.689 101.281 421.055 99.4844 419.941 98.2734C418.828 97.043 417.285 96.4277 415.312 96.4277ZM433.096 106.916C433.096 102.033 434.229 98.1172 436.494 95.168C438.76 92.1992 441.797 90.7148 445.605 90.7148C448.965 90.7148 451.68 91.8867 453.75 94.2305V78H460.869V123H454.424L454.072 119.719C451.943 122.297 449.102 123.586 445.547 123.586C441.836 123.586 438.828 122.092 436.523 119.104C434.238 116.115 433.096 112.053 433.096 106.916ZM440.215 107.531C440.215 110.754 440.83 113.273 442.061 115.09C443.311 116.887 445.078 117.785 447.363 117.785C450.273 117.785 452.402 116.486 453.75 113.889V100.354C452.441 97.8145 450.332 96.5449 447.422 96.5449C445.117 96.5449 443.34 97.4629 442.09 99.2988C440.84 101.115 440.215 103.859 440.215 107.531ZM490.811 123H483.691V91.3008H490.811V123ZM483.252 83.0684C483.252 81.9746 483.594 81.0664 484.277 80.3438C484.98 79.6211 485.977 79.2598 487.266 79.2598C488.555 79.2598 489.551 79.6211 490.254 80.3438C490.957 81.0664 491.309 81.9746 491.309 83.0684C491.309 84.1426 490.957 85.041 490.254 85.7637C489.551 86.4668 488.555 86.8184 487.266 86.8184C485.977 86.8184 484.98 86.4668 484.277 85.7637C483.594 85.041 483.252 84.1426 483.252 83.0684ZM505.195 91.3008L505.4 94.9629C507.744 92.1309 510.82 90.7148 514.629 90.7148C521.23 90.7148 524.59 94.4941 524.707 102.053V123H517.588V102.463C517.588 100.451 517.148 98.9668 516.27 98.0098C515.41 97.0332 513.994 96.5449 512.021 96.5449C509.15 96.5449 507.012 97.8438 505.605 100.441V123H498.486V91.3008H505.195ZM545.01 117.902C546.787 117.902 548.262 117.385 549.434 116.35C550.605 115.314 551.23 114.035 551.309 112.512H558.018C557.939 114.484 557.324 116.33 556.172 118.049C555.02 119.748 553.457 121.096 551.484 122.092C549.512 123.088 547.383 123.586 545.098 123.586C540.664 123.586 537.148 122.15 534.551 119.279C531.953 116.408 530.654 112.443 530.654 107.385V106.652C530.654 101.828 531.943 97.9707 534.521 95.0801C537.1 92.1699 540.615 90.7148 545.068 90.7148C548.838 90.7148 551.904 91.8184 554.268 94.0254C556.65 96.2129 557.9 99.0938 558.018 102.668H551.309C551.23 100.852 550.605 99.3574 549.434 98.1855C548.281 97.0137 546.807 96.4277 545.01 96.4277C542.705 96.4277 540.928 97.2676 539.678 98.9473C538.428 100.607 537.793 103.137 537.773 106.535V107.678C537.773 111.115 538.389 113.684 539.619 115.383C540.869 117.062 542.666 117.902 545.01 117.902ZM562.061 106.857C562.061 103.752 562.676 100.959 563.906 98.4785C565.137 95.9785 566.865 94.0645 569.092 92.7363C571.318 91.3887 573.877 90.7148 576.768 90.7148C581.045 90.7148 584.512 92.0918 587.168 94.8457C589.844 97.5996 591.289 101.252 591.504 105.803L591.533 107.473C591.533 110.598 590.928 113.391 589.717 115.852C588.525 118.312 586.807 120.217 584.561 121.564C582.334 122.912 579.756 123.586 576.826 123.586C572.354 123.586 568.77 122.102 566.074 119.133C563.398 116.145 562.061 112.17 562.061 107.209V106.857ZM569.18 107.473C569.18 110.734 569.854 113.293 571.201 115.148C572.549 116.984 574.424 117.902 576.826 117.902C579.229 117.902 581.094 116.965 582.422 115.09C583.77 113.215 584.443 110.471 584.443 106.857C584.443 103.654 583.75 101.115 582.363 99.2402C580.996 97.3652 579.131 96.4277 576.768 96.4277C574.443 96.4277 572.598 97.3555 571.23 99.2109C569.863 101.047 569.18 103.801 569.18 107.473ZM604.248 91.3008L604.453 94.6113C606.68 92.0137 609.727 90.7148 613.594 90.7148C617.832 90.7148 620.732 92.3359 622.295 95.5781C624.6 92.3359 627.842 90.7148 632.021 90.7148C635.518 90.7148 638.115 91.6816 639.814 93.6152C641.533 95.5488 642.412 98.4004 642.451 102.17V123H635.332V102.375C635.332 100.363 634.893 98.8887 634.014 97.9512C633.135 97.0137 631.68 96.5449 629.648 96.5449C628.027 96.5449 626.699 96.9844 625.664 97.8633C624.648 98.7227 623.936 99.8555 623.525 101.262L623.555 123H616.436V102.141C616.338 98.4102 614.434 96.5449 610.723 96.5449C607.871 96.5449 605.85 97.707 604.658 100.031V123H597.539V91.3008H604.248ZM663.721 123.586C659.209 123.586 655.547 122.17 652.734 119.338C649.941 116.486 648.545 112.697 648.545 107.971V107.092C648.545 103.928 649.15 101.105 650.361 98.625C651.592 96.125 653.311 94.1816 655.518 92.7949C657.725 91.4082 660.186 90.7148 662.9 90.7148C667.217 90.7148 670.547 92.0918 672.891 94.8457C675.254 97.5996 676.436 101.496 676.436 106.535V109.406H655.723C655.938 112.023 656.807 114.094 658.33 115.617C659.873 117.141 661.807 117.902 664.131 117.902C667.393 117.902 670.049 116.584 672.1 113.947L675.938 117.609C674.668 119.504 672.969 120.979 670.84 122.033C668.73 123.068 666.357 123.586 663.721 123.586ZM662.871 96.4277C660.918 96.4277 659.336 97.1113 658.125 98.4785C656.934 99.8457 656.172 101.75 655.84 104.191H669.404V103.664C669.248 101.281 668.613 99.4844 667.5 98.2734C666.387 97.043 664.844 96.4277 662.871 96.4277ZM22.5879 193C22.2754 192.395 22.002 191.408 21.7676 190.041C19.502 192.404 16.7285 193.586 13.4473 193.586C10.2637 193.586 7.66602 192.678 5.6543 190.861C3.64258 189.045 2.63672 186.799 2.63672 184.123C2.63672 180.744 3.88672 178.156 6.38672 176.359C8.90625 174.543 12.5 173.635 17.168 173.635H21.5332V171.555C21.5332 169.914 21.0742 168.605 20.1562 167.629C19.2383 166.633 17.8418 166.135 15.9668 166.135C14.3457 166.135 13.0176 166.545 11.9824 167.365C10.9473 168.166 10.4297 169.191 10.4297 170.441H3.31055C3.31055 168.703 3.88672 167.082 5.03906 165.578C6.19141 164.055 7.75391 162.863 9.72656 162.004C11.7188 161.145 13.9355 160.715 16.377 160.715C20.0879 160.715 23.0469 161.652 25.2539 163.527C27.4609 165.383 28.5938 168 28.6523 171.379V185.676C28.6523 188.527 29.0527 190.803 29.8535 192.502V193H22.5879ZM14.7656 187.873C16.1719 187.873 17.4902 187.531 18.7207 186.848C19.9707 186.164 20.9082 185.246 21.5332 184.094V178.117H17.6953C15.0586 178.117 13.0762 178.576 11.748 179.494C10.4199 180.412 9.75586 181.711 9.75586 183.391C9.75586 184.758 10.2051 185.852 11.1035 186.672C12.0215 187.473 13.2422 187.873 14.7656 187.873ZM42.7148 161.301L42.9199 164.963C45.2637 162.131 48.3398 160.715 52.1484 160.715C58.75 160.715 62.1094 164.494 62.2266 172.053V193H55.1074V172.463C55.1074 170.451 54.668 168.967 53.7891 168.01C52.9297 167.033 51.5137 166.545 49.541 166.545C46.6699 166.545 44.5312 167.844 43.125 170.441V193H36.0059V161.301H42.7148ZM68.1738 176.916C68.1738 172.033 69.3066 168.117 71.5723 165.168C73.8379 162.199 76.875 160.715 80.6836 160.715C84.043 160.715 86.7578 161.887 88.8281 164.23V148H95.9473V193H89.502L89.1504 189.719C87.0215 192.297 84.1797 193.586 80.625 193.586C76.9141 193.586 73.9062 192.092 71.6016 189.104C69.3164 186.115 68.1738 182.053 68.1738 176.916ZM75.293 177.531C75.293 180.754 75.9082 183.273 77.1387 185.09C78.3887 186.887 80.1562 187.785 82.4414 187.785C85.3516 187.785 87.4805 186.486 88.8281 183.889V170.354C87.5195 167.814 85.4102 166.545 82.5 166.545C80.1953 166.545 78.418 167.463 77.168 169.299C75.918 171.115 75.293 173.859 75.293 177.531ZM146.133 177.473C146.133 182.395 145.029 186.311 142.822 189.221C140.635 192.131 137.617 193.586 133.77 193.586C130.059 193.586 127.168 192.248 125.098 189.572L124.746 193H118.301V148H125.42V164.348C127.471 161.926 130.234 160.715 133.711 160.715C137.578 160.715 140.615 162.15 142.822 165.021C145.029 167.893 146.133 171.906 146.133 177.062V177.473ZM139.014 176.857C139.014 173.42 138.408 170.842 137.197 169.123C135.986 167.404 134.229 166.545 131.924 166.545C128.838 166.545 126.67 167.893 125.42 170.588V183.654C126.689 186.408 128.877 187.785 131.982 187.785C134.209 187.785 135.928 186.955 137.139 185.295C138.35 183.635 138.975 181.125 139.014 177.766V176.857ZM171.328 189.895C169.238 192.355 166.27 193.586 162.422 193.586C158.984 193.586 156.377 192.58 154.6 190.568C152.842 188.557 151.963 185.646 151.963 181.838V161.301H159.082V181.75C159.082 185.773 160.752 187.785 164.092 187.785C167.549 187.785 169.883 186.545 171.094 184.064V161.301H178.213V193H171.504L171.328 189.895ZM193.037 193H185.918V161.301H193.037V193ZM185.479 153.068C185.479 151.975 185.82 151.066 186.504 150.344C187.207 149.621 188.203 149.26 189.492 149.26C190.781 149.26 191.777 149.621 192.48 150.344C193.184 151.066 193.535 151.975 193.535 153.068C193.535 154.143 193.184 155.041 192.48 155.764C191.777 156.467 190.781 156.818 189.492 156.818C188.203 156.818 187.207 156.467 186.504 155.764C185.82 155.041 185.479 154.143 185.479 153.068ZM208.389 193H201.27V148H208.389V193ZM214.834 176.916C214.834 172.033 215.967 168.117 218.232 165.168C220.498 162.199 223.535 160.715 227.344 160.715C230.703 160.715 233.418 161.887 235.488 164.23V148H242.607V193H236.162L235.811 189.719C233.682 192.297 230.84 193.586 227.285 193.586C223.574 193.586 220.566 192.092 218.262 189.104C215.977 186.115 214.834 182.053 214.834 176.916ZM221.953 177.531C221.953 180.754 222.568 183.273 223.799 185.09C225.049 186.887 226.816 187.785 229.102 187.785C232.012 187.785 234.141 186.486 235.488 183.889V170.354C234.18 167.814 232.07 166.545 229.16 166.545C226.855 166.545 225.078 167.463 223.828 169.299C222.578 171.115 221.953 173.859 221.953 177.531ZM276.064 182.805L282.51 161.301H290.098L277.5 197.805C275.566 203.137 272.285 205.803 267.656 205.803C266.621 205.803 265.479 205.627 264.229 205.275V199.768L265.576 199.855C267.373 199.855 268.721 199.523 269.619 198.859C270.537 198.215 271.26 197.121 271.787 195.578L272.812 192.854L261.68 161.301H269.355L276.064 182.805ZM292.412 176.857C292.412 173.752 293.027 170.959 294.258 168.479C295.488 165.979 297.217 164.064 299.443 162.736C301.67 161.389 304.229 160.715 307.119 160.715C311.396 160.715 314.863 162.092 317.52 164.846C320.195 167.6 321.641 171.252 321.855 175.803L321.885 177.473C321.885 180.598 321.279 183.391 320.068 185.852C318.877 188.312 317.158 190.217 314.912 191.564C312.686 192.912 310.107 193.586 307.178 193.586C302.705 193.586 299.121 192.102 296.426 189.133C293.75 186.145 292.412 182.17 292.412 177.209V176.857ZM299.531 177.473C299.531 180.734 300.205 183.293 301.553 185.148C302.9 186.984 304.775 187.902 307.178 187.902C309.58 187.902 311.445 186.965 312.773 185.09C314.121 183.215 314.795 180.471 314.795 176.857C314.795 173.654 314.102 171.115 312.715 169.24C311.348 167.365 309.482 166.428 307.119 166.428C304.795 166.428 302.949 167.355 301.582 169.211C300.215 171.047 299.531 173.801 299.531 177.473ZM347.109 189.895C345.02 192.355 342.051 193.586 338.203 193.586C334.766 193.586 332.158 192.58 330.381 190.568C328.623 188.557 327.744 185.646 327.744 181.838V161.301H334.863V181.75C334.863 185.773 336.533 187.785 339.873 187.785C343.33 187.785 345.664 186.545 346.875 184.064V161.301H353.994V193H347.285L347.109 189.895ZM377.842 167.805C376.904 167.648 375.938 167.57 374.941 167.57C371.68 167.57 369.482 168.82 368.35 171.32V193H361.23V161.301H368.027L368.203 164.846C369.922 162.092 372.305 160.715 375.352 160.715C376.367 160.715 377.207 160.852 377.871 161.125L377.842 167.805ZM395.947 176.857C395.947 173.752 396.562 170.959 397.793 168.479C399.023 165.979 400.752 164.064 402.979 162.736C405.205 161.389 407.764 160.715 410.654 160.715C414.932 160.715 418.398 162.092 421.055 164.846C423.73 167.6 425.176 171.252 425.391 175.803L425.42 177.473C425.42 180.598 424.814 183.391 423.604 185.852C422.412 188.312 420.693 190.217 418.447 191.564C416.221 192.912 413.643 193.586 410.713 193.586C406.24 193.586 402.656 192.102 399.961 189.133C397.285 186.145 395.947 182.17 395.947 177.209V176.857ZM403.066 177.473C403.066 180.734 403.74 183.293 405.088 185.148C406.436 186.984 408.311 187.902 410.713 187.902C413.115 187.902 414.98 186.965 416.309 185.09C417.656 183.215 418.33 180.471 418.33 176.857C418.33 173.654 417.637 171.115 416.25 169.24C414.883 167.365 413.018 166.428 410.654 166.428C408.33 166.428 406.484 167.355 405.117 169.211C403.75 171.047 403.066 173.801 403.066 177.473ZM459.287 183.186L464.326 161.301H471.27L462.627 193H456.768L449.971 171.232L443.291 193H437.432L428.76 161.301H435.703L440.83 182.951L447.334 161.301H452.695L459.287 183.186ZM482.637 161.301L482.842 164.963C485.186 162.131 488.262 160.715 492.07 160.715C498.672 160.715 502.031 164.494 502.148 172.053V193H495.029V172.463C495.029 170.451 494.59 168.967 493.711 168.01C492.852 167.033 491.436 166.545 489.463 166.545C486.592 166.545 484.453 167.844 483.047 170.441V193H475.928V161.301H482.637ZM526.875 193V166.574H522.041V161.301H526.875V158.4C526.875 154.885 527.852 152.17 529.805 150.256C531.758 148.342 534.492 147.385 538.008 147.385C539.258 147.385 540.586 147.561 541.992 147.912L541.816 153.479C541.035 153.322 540.127 153.244 539.092 153.244C535.693 153.244 533.994 154.992 533.994 158.488V161.301H540.439V166.574H533.994V193H526.875ZM564.844 189.895C562.754 192.355 559.785 193.586 555.938 193.586C552.5 193.586 549.893 192.58 548.115 190.568C546.357 188.557 545.479 185.646 545.479 181.838V161.301H552.598V181.75C552.598 185.773 554.268 187.785 557.607 187.785C561.064 187.785 563.398 186.545 564.609 184.064V161.301H571.729V193H565.02L564.844 189.895ZM587.9 153.596V161.301H593.496V166.574H587.9V184.27C587.9 185.48 588.135 186.359 588.604 186.906C589.092 187.434 589.951 187.697 591.182 187.697C592.002 187.697 592.832 187.6 593.672 187.404V192.912C592.051 193.361 590.488 193.586 588.984 193.586C583.516 193.586 580.781 190.568 580.781 184.533V166.574H575.566V161.301H580.781V153.596H587.9ZM618.164 189.895C616.074 192.355 613.105 193.586 609.258 193.586C605.82 193.586 603.213 192.58 601.436 190.568C599.678 188.557 598.799 185.646 598.799 181.838V161.301H605.918V181.75C605.918 185.773 607.588 187.785 610.928 187.785C614.385 187.785 616.719 186.545 617.93 184.064V161.301H625.049V193H618.34L618.164 189.895ZM648.896 167.805C647.959 167.648 646.992 167.57 645.996 167.57C642.734 167.57 640.537 168.82 639.404 171.32V193H632.285V161.301H639.082L639.258 164.846C640.977 162.092 643.359 160.715 646.406 160.715C647.422 160.715 648.262 160.852 648.926 161.125L648.896 167.805ZM666.768 193.586C662.256 193.586 658.594 192.17 655.781 189.338C652.988 186.486 651.592 182.697 651.592 177.971V177.092C651.592 173.928 652.197 171.105 653.408 168.625C654.639 166.125 656.357 164.182 658.564 162.795C660.771 161.408 663.232 160.715 665.947 160.715C670.264 160.715 673.594 162.092 675.938 164.846C678.301 167.6 679.482 171.496 679.482 176.535V179.406H658.77C658.984 182.023 659.854 184.094 661.377 185.617C662.92 187.141 664.854 187.902 667.178 187.902C670.439 187.902 673.096 186.584 675.146 183.947L678.984 187.609C677.715 189.504 676.016 190.979 673.887 192.033C671.777 193.068 669.404 193.586 666.768 193.586ZM665.918 166.428C663.965 166.428 662.383 167.111 661.172 168.479C659.98 169.846 659.219 171.75 658.887 174.191H672.451V173.664C672.295 171.281 671.66 169.484 670.547 168.273C669.434 167.043 667.891 166.428 665.918 166.428Z" fill="url(#paint0_linear)"/>
<defs>
<linearGradient id="paint0_linear" x1="38" y1="86" x2="705" y2="161" gradientUnits="userSpaceOnUse">
<stop stop-color="#648DFE"/>
<stop offset="0.526042" stop-color="#5BBAEF"/>
<stop offset="0.901042" stop-color="#7C1DC9"/>
<stop offset="0.984375" stop-color="#FF39D4"/>
</linearGradient>
</defs>
</svg>
