<svg width="18" height="18" viewBox="0 0 18 18" fill="none" xmlns="http://www.w3.org/2000/svg">
<path d="M9.64999 2.87962C9.64999 2.99298 9.71759 3.08427 9.80358 3.14283C9.8901 3.20175 10.004 3.235 10.125 3.235C10.2458 3.235 10.3598 3.20193 10.4464 3.14305C10.5325 3.08449 10.6 2.99317 10.6 2.87962V2.02153C10.6 1.69691 10.4061 1.4141 10.1165 1.21685C9.82629 1.01921 9.4311 0.9 9 0.9C8.56889 0.9 8.1737 1.01921 7.88349 1.21685C7.59385 1.4141 7.4 1.69691 7.4 2.02153V2.87962C7.4 2.99317 7.46753 3.08449 7.55364 3.14305C7.64021 3.20193 7.75415 3.235 7.875 3.235C7.99594 3.235 8.10989 3.20175 8.19641 3.14283C8.2824 3.08427 8.35 2.99298 8.35 2.87962V2.02153C8.35 1.92381 8.40846 1.82353 8.52632 1.74326C8.64357 1.66341 8.81089 1.61077 9 1.61077C9.1891 1.61077 9.35642 1.66341 9.47367 1.74326C9.59153 1.82353 9.64999 1.92381 9.64999 2.02153V2.87962Z" fill="white" stroke="white" stroke-width="0.2"/>
<path d="M6.275 15.25C6.275 15.7764 6.59613 16.2414 7.08922 16.5701C7.58306 16.8993 8.2592 17.1 9 17.1C9.7408 17.1 10.4169 16.8993 10.9108 16.5701C11.4039 16.2414 11.725 15.7764 11.725 15.25C11.725 15.1371 11.6563 15.0472 11.5706 14.99C11.4842 14.9324 11.3705 14.9 11.25 14.9C11.1295 14.9 11.0158 14.9324 10.9294 14.99C10.8437 15.0472 10.775 15.1371 10.775 15.25C10.775 15.5505 10.5914 15.8356 10.2696 16.0502C9.94855 16.2642 9.49968 16.4 9 16.4C8.50032 16.4 8.05145 16.2642 7.73041 16.0502C7.40859 15.8356 7.225 15.5505 7.225 15.25C7.225 15.1371 7.15631 15.0472 7.0706 14.99C6.98416 14.9324 6.87051 14.9 6.75 14.9C6.62949 14.9 6.51584 14.9324 6.4294 14.99C6.34369 15.0472 6.275 15.1371 6.275 15.25Z" fill="white" stroke="white" stroke-width="0.2"/>
<path d="M1.82932 13.6936L1.82883 13.694C1.55616 13.9275 1.40012 14.2665 1.40012 14.625C1.40012 15.3005 1.94964 15.85 2.62512 15.85H15.3751C16.0514 15.85 16.6001 15.3004 16.6001 14.625C16.6001 14.2661 16.4438 13.9273 16.1654 13.6888L16.1649 13.6884C15.0114 12.7136 14.3501 11.2888 14.3501 9.7785V7.5C14.3501 4.54977 11.9503 2.15 9.00012 2.15C6.04989 2.15 3.65012 4.54977 3.65012 7.5V9.7785C3.65012 11.288 2.9889 12.7136 1.82932 13.6936ZM4.60012 7.5C4.60012 5.07348 6.5736 3.1 9.00012 3.1L15.6189 14.34L15.5538 14.416C15.5539 14.416 15.554 14.4161 15.5541 14.4162C15.615 14.4684 15.6501 14.5448 15.6501 14.625C15.6501 14.7768 15.5269 14.9 15.3751 14.9H2.62512C2.47335 14.9 2.35012 14.7768 2.35012 14.625C2.35012 14.5453 2.3849 14.4687 2.44918 14.4139C3.81625 13.2579 4.60012 11.5688 4.60012 9.7785V7.5Z" fill="white" stroke="white" stroke-width="0.2"/>
</svg>
