<svg width="18" height="18" viewBox="0 0 18 18" fill="none" xmlns="http://www.w3.org/2000/svg">
<path d="M16.1543 11.7574V11.7583C16.1543 12.2696 15.9595 12.5431 15.7237 12.6967C15.477 12.8574 15.1634 12.9006 14.913 12.9006H14.4021V7.59204H14.9304C15.1762 7.59204 15.4899 7.63302 15.7379 7.79269C15.9745 7.94506 16.1715 8.21819 16.1717 8.7338C16.1717 8.73398 16.1717 8.73415 16.1717 8.73432L16.1543 11.7574ZM15.4093 6.68446C15.3345 3.44058 12.4832 0.85 8.99994 0.85C5.5166 0.85 2.66536 3.44063 2.59057 6.68455C2.16591 6.75387 1.75099 6.92263 1.43111 7.22573C1.07499 7.56319 0.849939 8.05483 0.849939 8.7214V11.7583C0.849939 12.5115 1.13621 13.0413 1.57048 13.379C1.99899 13.7121 2.5565 13.8467 3.0869 13.8467H4.09559C4.3599 13.8467 4.59342 13.6451 4.59342 13.3736V7.11897C4.59342 6.84747 4.3599 6.6459 4.09559 6.6459H3.5871C3.67262 3.95289 6.05312 1.77676 8.99994 1.77676C11.9468 1.77676 14.3273 3.95289 14.4128 6.6459H13.9043C13.64 6.6459 13.4065 6.84747 13.4065 7.11897V13.3639C13.4065 13.6354 13.64 13.837 13.9043 13.837H14.4065C14.3375 14.8267 14.0398 15.4156 13.5322 15.7789C13.0108 16.1521 12.2408 16.309 11.1778 16.3633V16.3039C11.1778 15.8539 10.7886 15.5077 10.3321 15.5077H8.14429C7.68785 15.5077 7.29864 15.8539 7.29864 16.3039V17.3539C7.29864 17.8038 7.68785 18.15 8.14429 18.15H10.3391C10.7955 18.15 11.1847 17.8038 11.1847 17.3539V17.3097C12.2361 17.2575 13.2438 17.1182 14.0125 16.6265C14.8081 16.1176 15.3228 15.2495 15.4047 13.7991C15.831 13.7302 16.2477 13.5614 16.5688 13.2572C16.9249 12.9197 17.1499 12.4281 17.1499 11.7615V8.72463C17.1499 8.05523 16.926 7.56268 16.5701 7.225C16.2504 6.92162 15.8352 6.75358 15.4093 6.68446ZM3.59776 7.56942V12.8909H3.0695C2.82363 12.8909 2.50999 12.8499 2.26202 12.6902C2.0253 12.5378 1.8282 12.2645 1.8282 11.7486V8.71171C1.8282 8.20033 2.02296 7.92683 2.25875 7.77329C2.50548 7.61262 2.81905 7.56942 3.0695 7.56942H3.59776ZM10.1891 16.866V17.2071H8.29429V16.4571H10.1891V16.866Z" fill="white" stroke="white" stroke-width="0.3"/>
</svg>
