<svg width="175" height="31" viewBox="0 0 175 31" fill="none" xmlns="http://www.w3.org/2000/svg">
<path d="M6.61328 30H0.949219V0H6.61328V30ZM35.0117 16.4258C35.0117 19.2253 34.5169 21.6797 33.5273 23.7891C32.5378 25.8984 31.1185 27.526 29.2695 28.6719C27.4336 29.8177 25.3242 30.3906 22.9414 30.3906C20.5846 30.3906 18.4818 29.8242 16.6328 28.6914C14.7839 27.5586 13.3516 25.944 12.3359 23.8477C11.3203 21.7383 10.806 19.3164 10.793 16.582V15.1758C10.793 12.3763 11.2943 9.91536 12.2969 7.79297C13.3125 5.65755 14.7383 4.02344 16.5742 2.89062C18.4232 1.74479 20.5326 1.17188 22.9023 1.17188C25.2721 1.17188 27.375 1.74479 29.2109 2.89062C31.0599 4.02344 32.4857 5.65755 33.4883 7.79297C34.5039 9.91536 35.0117 12.3698 35.0117 15.1562V16.4258ZM29.0742 15.1367C29.0742 12.1549 28.5404 9.88932 27.4727 8.33984C26.4049 6.79036 24.8815 6.01562 22.9023 6.01562C20.9362 6.01562 19.4193 6.78385 18.3516 8.32031C17.2839 9.84375 16.7435 12.0833 16.7305 15.0391V16.4258C16.7305 19.3294 17.2643 21.582 18.332 23.1836C19.3997 24.7852 20.9362 25.5859 22.9414 25.5859C24.9076 25.5859 26.418 24.8177 27.4727 23.2812C28.5273 21.7318 29.0612 19.4792 29.0742 16.5234V15.1367ZM61.7695 26.4062C60.7148 27.6693 59.224 28.6523 57.2969 29.3555C55.3698 30.0456 53.2344 30.3906 50.8906 30.3906C48.4297 30.3906 46.2682 29.8568 44.4062 28.7891C42.5573 27.7083 41.125 26.1458 40.1094 24.1016C39.1068 22.0573 38.5924 19.6549 38.5664 16.8945V14.9609C38.5664 12.1224 39.0417 9.66797 39.9922 7.59766C40.9557 5.51432 42.3359 3.92578 44.1328 2.83203C45.9427 1.72526 48.0586 1.17188 50.4805 1.17188C53.8529 1.17188 56.4896 1.97917 58.3906 3.59375C60.2917 5.19531 61.418 7.53255 61.7695 10.6055H56.0664C55.806 8.97786 55.2266 7.78646 54.3281 7.03125C53.4427 6.27604 52.2188 5.89844 50.6562 5.89844C48.6641 5.89844 47.1471 6.64714 46.1055 8.14453C45.0638 9.64193 44.5365 11.8685 44.5234 14.8242V16.6406C44.5234 19.6224 45.0898 21.875 46.2227 23.3984C47.3555 24.9219 49.0156 25.6836 51.2031 25.6836C53.4036 25.6836 54.9727 25.2148 55.9102 24.2773V19.375H50.5781V15.0586H61.7695V26.4062ZM89.8945 16.4258C89.8945 19.2253 89.3997 21.6797 88.4102 23.7891C87.4206 25.8984 86.0013 27.526 84.1523 28.6719C82.3164 29.8177 80.207 30.3906 77.8242 30.3906C75.4674 30.3906 73.3646 29.8242 71.5156 28.6914C69.6667 27.5586 68.2344 25.944 67.2188 23.8477C66.2031 21.7383 65.6888 19.3164 65.6758 16.582V15.1758C65.6758 12.3763 66.1771 9.91536 67.1797 7.79297C68.1953 5.65755 69.6211 4.02344 71.457 2.89062C73.306 1.74479 75.4154 1.17188 77.7852 1.17188C80.1549 1.17188 82.2578 1.74479 84.0938 2.89062C85.9427 4.02344 87.3685 5.65755 88.3711 7.79297C89.3867 9.91536 89.8945 12.3698 89.8945 15.1562V16.4258ZM83.957 15.1367C83.957 12.1549 83.4232 9.88932 82.3555 8.33984C81.2878 6.79036 79.7643 6.01562 77.7852 6.01562C75.819 6.01562 74.3021 6.78385 73.2344 8.32031C72.1667 9.84375 71.6263 12.0833 71.6133 15.0391V16.4258C71.6133 19.3294 72.1471 21.582 73.2148 23.1836C74.2826 24.7852 75.819 25.5859 77.8242 25.5859C79.7904 25.5859 81.3008 24.8177 82.3555 23.2812C83.4102 21.7318 83.944 19.4792 83.957 16.5234V15.1367Z" fill="white"/>
<path d="M121.223 17.6758H109.973V25.293H123.176V30H104.113V1.5625H123.137V6.30859H109.973V13.0859H121.223V17.6758ZM148.41 6.30859H139.699V30H133.84V6.30859H125.246V1.5625H148.41V6.30859ZM174.914 30H169.055V17.8125H157.629V30H151.77V1.5625H157.629V13.0859H169.055V1.5625H174.914V30Z" fill="#F04B4B"/>
</svg>
